<svg fill="none" xmlns="http://www.w3.org/2000/svg" viewBox="41.36 55.81 466.31 353.13"> <path d="M99.7171 130.584C175.533 55.3037 305.697 42.7744 363.725 66.955C386.272 76.2783 407.128 88.4401 425.626 103.051C428.05 104.94 430.405 106.882 432.692 108.877C439.832 115.014 446.528 121.532 452.741 128.393C460.188 136.601 466.906 145.294 472.834 154.396C481.329 167.348 488.057 181.123 492.883 195.44C496.077 204.834 498.172 214.485 499.137 224.247C500.793 242.574 499.354 261.07 496.53 279.246C496.27 280.983 495.989 282.72 495.686 284.458C495.61 284.939 495.534 285.402 495.448 285.902C492.342 304.002 487.949 322.263 478.136 338.05C467.424 355.3 430.052 403.161 389.52 404.398C368.497 405.049 349.93 393.068 330.876 384.57C300.58 371.087 266.291 368.443 232.857 367.659C199.423 366.876 165.578 367.716 132.999 360.484C100.42 353.251 68.4798 336.643 51.8278 309.035C46.1689 299.65 41.8734 286.129 41.8625 275.309C41.8625 243.386 47.8352 215.466 58.2657 191.21C61.5778 183.475 65.4409 175.929 69.8323 168.616C76.2644 157.891 83.8432 147.721 92.4677 138.241L99.7171 130.584Z" fill="#FFA34D"/> <g opacity="0.7"> <path d="M99.7171 130.584C175.533 55.3037 305.697 42.7744 363.725 66.955C386.272 76.2783 407.128 88.4401 425.626 103.051C428.05 104.94 430.405 106.882 432.692 108.877C439.832 115.014 446.528 121.532 452.741 128.393C460.188 136.601 466.906 145.294 472.834 154.396C481.329 167.348 488.057 181.123 492.883 195.44C496.077 204.834 498.172 214.485 499.137 224.247C500.793 242.574 499.354 261.07 496.53 279.246C496.27 280.983 495.989 282.72 495.686 284.458C495.61 284.939 495.534 285.402 495.448 285.902C492.342 304.002 487.949 322.263 478.136 338.05C467.424 355.3 430.052 403.161 389.52 404.398C368.497 405.049 349.93 393.068 330.876 384.57C300.58 371.087 266.291 368.443 232.857 367.659C199.423 366.876 165.578 367.716 132.999 360.484C100.42 353.251 68.4798 336.643 51.8278 309.035C46.1689 299.65 41.8734 286.129 41.8625 275.309C41.8625 243.386 47.8352 215.466 58.2657 191.21C61.5778 183.475 65.4409 175.929 69.8323 168.616C76.2644 157.891 83.8432 147.721 92.4677 138.241L99.7171 130.584Z" fill="white"/> </g> <path d="M41.8625 403.302H507.177" stroke="#263238" stroke-linecap="round" stroke-linejoin="round"/> <path d="M399.961 266.329V266.433C399.961 266.603 400.004 266.782 400.091 266.971C400.575 269.04 400.936 271.13 401.173 273.231C401.379 275.034 401.541 277.093 401.584 279.387C401.687 284.69 401.271 289.99 400.34 295.231C400.102 296.609 399.821 298.063 399.485 299.517C398.955 301.916 398.306 304.427 397.505 307.024C397.148 308.232 396.737 309.469 396.304 310.715L395.795 312.235C395.601 312.849 395.406 313.463 395.222 314.124C393.978 318.319 392.985 322.567 392.247 326.851C391.327 332.186 390.753 337.483 390.44 342.497C390.018 349.181 390.039 355.356 390.223 360.436C390.218 360.521 390.218 360.606 390.223 360.691C390.418 365.856 390.786 369.906 391.035 372.21C391.175 373.56 391.273 374.325 391.284 374.372" stroke="#263238" stroke-linecap="round" stroke-linejoin="round"/> <path d="M399.994 266.461C398.374 265.205 396.422 264.32 394.313 263.884L399.994 266.461Z" fill="white"/> <path d="M399.994 266.461C398.374 265.205 396.422 264.32 394.313 263.884" stroke="#263238" stroke-linecap="round" stroke-linejoin="round"/> <path d="M401.206 273.26L404.084 270.984" stroke="#263238" stroke-linecap="round" stroke-linejoin="round"/> <path d="M397.538 307.033C397.387 306.37 397.162 305.722 396.867 305.098C396.44 304.181 395.86 303.325 395.146 302.558C394.613 301.981 394.007 301.458 393.339 301" stroke="#263238" stroke-linecap="round" stroke-linejoin="round"/> <path d="M395.233 314.115C395.641 313.233 396.252 312.433 397.028 311.766C397.804 311.098 398.729 310.577 399.745 310.234" stroke="#263238" stroke-linecap="round" stroke-linejoin="round"/> <path d="M390.234 349.238C391.197 348.218 391.922 344.357 392.312 342.28C392.409 341.789 392.485 341.335 392.56 341.062" fill="white"/> <path d="M390.234 349.238C391.197 348.218 391.922 344.357 392.312 342.28C392.409 341.789 392.485 341.335 392.56 341.062" stroke="#263238" stroke-linecap="round" stroke-linejoin="round"/> <path d="M382.822 356.244C383.142 356.216 383.465 356.216 383.785 356.244C385.202 356.364 386.555 356.819 387.699 357.559C388.843 358.299 389.734 359.297 390.277 360.446" fill="white"/> <path d="M382.822 356.244C383.142 356.216 383.465 356.216 383.785 356.244C385.202 356.364 386.555 356.819 387.699 357.559C388.843 358.299 389.734 359.297 390.277 360.446" stroke="#263238" stroke-linecap="round" stroke-linejoin="round"/> <path d="M399.518 299.593C399.518 299.593 400.026 284.269 390.385 278.708" stroke="#263238" stroke-linecap="round" stroke-linejoin="round"/> <path d="M400.34 332.441C401.606 336.02 392.766 342.827 392.766 342.827C392.766 342.827 381.091 341.553 379.782 337.984C378.473 334.415 381.47 328.542 387.14 327.031C392.809 325.52 399.117 328.863 400.34 332.441Z" fill="#FFA34D"/> <path d="M410.175 289.075C409.093 292.851 400.697 295.561 400.697 295.561C400.697 295.561 394.93 289.679 396.012 285.883C397.094 282.088 401.757 277.914 405.674 278.792C409.591 279.67 411.301 285.279 410.175 289.075Z" fill="#FFA34D"/> <path d="M376.644 345.792C381.892 347.567 385.105 355.668 385.105 355.668C385.105 355.668 376.449 359.737 371.213 357.953C365.976 356.168 360.393 351.145 361.907 347.794C363.422 344.442 371.397 343.97 376.644 345.792Z" fill="#FFA34D"/> <path d="M388.146 301.226C389.208 302.006 390.426 302.608 391.738 303.002C392.397 303.188 393.101 303.212 393.775 303.072C394.449 302.932 395.065 302.633 395.557 302.208C396.639 301.085 396.38 299.376 395.676 297.969C394.27 295.278 389.098 290.699 385.127 292.011C379.392 293.928 385.592 299.593 388.146 301.226Z" fill="#FFA34D"/> <path d="M399.885 308.09C399.128 308.902 398.327 309.932 398.749 310.923C398.985 311.339 399.371 311.676 399.849 311.881C400.326 312.086 400.868 312.148 401.389 312.056C402.427 311.841 403.396 311.425 404.224 310.838C406.248 309.611 410.403 307.061 407.752 304.635C405.101 302.208 401.422 306.382 399.885 308.09Z" fill="#FFA34D"/> <path d="M382.952 273.845C382.515 273.867 382.098 274.009 381.758 274.249C381.418 274.49 381.174 274.817 381.059 275.186C380.886 276.064 381.719 276.829 382.519 277.367C384.532 278.726 390.58 282.371 391.922 278.849C393.199 275.526 385.614 273.59 382.952 273.845Z" fill="#FFA34D"/> <path d="M394.086 262.269C392.842 262.373 391.597 261.977 390.342 262.043C389.087 262.109 387.713 262.987 387.983 264.063C388.254 265.14 389.65 265.376 390.797 265.432C392.771 265.543 394.754 265.425 396.694 265.083C397.153 265.045 397.578 264.856 397.884 264.554C398.392 263.903 397.592 263.034 396.726 262.807C395.837 262.704 394.963 262.521 394.118 262.26L394.086 262.269Z" fill="#FFA34D"/> <path d="M406.269 269.757C407.514 269.757 408.725 269.322 409.981 269.313C411.236 269.303 412.686 270.106 412.48 271.201C412.274 272.296 410.933 272.608 409.786 272.731C407.825 272.957 405.839 272.957 403.878 272.731C403.414 272.721 402.972 272.556 402.645 272.268C402.093 271.654 402.829 270.739 403.662 270.455C404.544 270.312 405.404 270.08 406.226 269.766L406.269 269.757Z" fill="#FFA34D"/> <path d="M405.036 350.22C405.322 349.959 405.706 349.795 406.118 349.758C406.396 349.781 406.656 349.888 406.853 350.06C407.051 350.232 407.173 350.459 407.2 350.702C407.26 351.168 407.193 351.64 407.005 352.08C406.15 354.563 396.629 372.494 394.432 369.274C393.145 367.386 396.326 361.069 397.267 359.284C399.063 355.802 401.716 352.708 405.036 350.22Z" fill="#FFA34D"/> <path d="M400.394 267.49C400.394 267.49 399.821 263.138 401.022 262.77" stroke="#263238" stroke-linecap="round" stroke-linejoin="round"/> <path d="M399.334 262.949C399.947 261.412 401.006 260.039 402.407 258.965C403.911 258.02 406.323 257.945 407.416 259.257C408.639 260.721 407.416 262.94 405.544 263.723C403.673 264.507 401.465 264.271 399.409 264.016C399.409 263.752 399.409 263.487 399.409 263.223L399.334 262.949Z" fill="#FFA34D"/> <path d="M404.462 403.085C394.263 404.586 383.847 404.586 373.647 403.085L361.658 372.22H416.451L404.462 403.085Z" fill="white" stroke="#263238" stroke-linecap="round" stroke-linejoin="round"/> <path d="M195.355 180.087V180.191C195.398 180.361 195.442 180.54 195.485 180.729C195.975 182.797 196.336 184.887 196.567 186.989C196.772 188.793 196.924 190.851 196.978 193.145C197.089 198.434 196.684 203.722 195.766 208.951C195.528 210.329 195.247 211.783 194.911 213.238C194.381 215.636 193.721 218.147 192.931 220.744C192.563 221.952 192.163 223.189 191.73 224.436C191.557 224.945 191.384 225.446 191.222 225.956C191.059 226.466 190.821 227.183 190.637 227.844C189.395 232.039 188.401 236.287 187.662 240.572C186.742 245.906 186.18 251.203 185.866 256.217C185.444 262.902 185.455 269.077 185.649 274.156V274.411C185.855 279.576 186.212 283.627 186.472 285.94C186.602 287.281 186.71 288.045 186.71 288.093" stroke="#263238" stroke-linecap="round" stroke-linejoin="round"/> <path d="M195.377 180.219C194.6 179.626 193.751 179.11 192.845 178.68C191.845 178.221 190.784 177.872 189.685 177.642" fill="white"/> <path d="M195.377 180.219C194.6 179.626 193.751 179.11 192.845 178.68C191.845 178.221 190.784 177.872 189.685 177.642" stroke="#263238" stroke-linecap="round" stroke-linejoin="round"/> <path d="M196.589 187.018L199.478 184.742" stroke="#263238" stroke-linecap="round" stroke-linejoin="round"/> <path d="M192.931 220.791C192.777 220.128 192.549 219.48 192.25 218.856C191.823 217.939 191.243 217.084 190.529 216.316C189.996 215.739 189.39 215.216 188.722 214.758" stroke="#263238" stroke-linecap="round" stroke-linejoin="round"/> <path d="M190.627 227.835C191.03 226.952 191.639 226.152 192.413 225.485C193.188 224.817 194.112 224.296 195.128 223.954" stroke="#263238" stroke-linecap="round" stroke-linejoin="round"/> <path d="M185.617 262.996C186.58 261.977 187.316 258.115 187.705 256.038C187.792 255.547 187.878 255.093 187.943 254.82" fill="white"/> <path d="M185.617 262.996C186.58 261.977 187.316 258.115 187.705 256.038C187.792 255.547 187.878 255.093 187.943 254.82" stroke="#263238" stroke-linecap="round" stroke-linejoin="round"/> <path d="M178.205 269.964C178.529 269.936 178.855 269.936 179.179 269.964C180.595 270.088 181.947 270.543 183.09 271.283C184.233 272.023 185.125 273.019 185.671 274.166" fill="white"/> <path d="M178.205 269.964C178.529 269.936 178.855 269.936 179.179 269.964C180.595 270.088 181.947 270.543 183.09 271.283C184.233 272.023 185.125 273.019 185.671 274.166" stroke="#263238" stroke-linecap="round" stroke-linejoin="round"/> <path d="M194.901 213.313C194.901 213.313 195.42 197.989 185.769 192.428" stroke="#263238" stroke-linecap="round" stroke-linejoin="round"/> <path d="M195.777 246.199C197.032 249.778 188.203 256.585 188.203 256.585C188.203 256.585 176.517 255.311 175.219 251.742C173.921 248.172 176.918 242.3 182.577 240.789C188.235 239.278 194.511 242.63 195.777 246.199Z" fill="#FFA34D"/> <path d="M205.58 202.833C204.498 206.609 196.102 209.319 196.102 209.319C196.102 209.319 190.27 203.437 191.395 199.641C192.52 195.846 197.129 191.672 201.046 192.55C204.963 193.429 206.662 199.037 205.58 202.833Z" fill="#FFA34D"/> <path d="M172.038 259.55C177.286 261.334 180.51 269.426 180.51 269.426C180.51 269.426 171.854 273.496 166.606 271.711C161.359 269.927 155.786 264.903 157.312 261.552C158.838 258.2 166.779 257.765 172.038 259.55Z" fill="#FFA34D"/> <path d="M183.54 214.984C184.598 215.763 185.812 216.365 187.121 216.759C187.78 216.945 188.485 216.97 189.158 216.83C189.832 216.69 190.448 216.391 190.941 215.966C192.023 214.843 191.763 213.134 191.06 211.727C189.653 209.036 184.492 204.457 180.51 205.769C174.786 207.667 180.975 213.332 183.54 214.984Z" fill="#FFA34D"/> <path d="M195.268 221.858C194.522 222.67 193.721 223.746 194.132 224.691C194.368 225.107 194.754 225.444 195.232 225.649C195.709 225.854 196.251 225.915 196.772 225.824C197.811 225.611 198.78 225.194 199.607 224.606C201.631 223.388 205.785 220.829 203.135 218.402C200.484 215.976 196.859 220.14 195.268 221.858Z" fill="#FFA34D"/> <path d="M178.335 187.603C177.899 187.627 177.482 187.768 177.143 188.009C176.803 188.249 176.558 188.576 176.442 188.944C176.269 189.822 177.102 190.587 177.913 191.125C179.926 192.484 185.963 196.129 187.316 192.607C188.582 189.284 181.008 187.348 178.335 187.603Z" fill="#FFA34D"/> <path d="M189.469 176.027C188.225 176.131 186.98 175.735 185.736 175.801C184.492 175.867 183.096 176.745 183.377 177.821C183.659 178.898 185.033 179.134 186.191 179.19C188.162 179.301 190.141 179.183 192.077 178.841C192.539 178.803 192.968 178.614 193.278 178.312C193.775 177.661 192.975 176.792 192.12 176.565C191.228 176.463 190.35 176.279 189.501 176.018L189.469 176.027Z" fill="#FFA34D"/> <path d="M201.652 183.515C202.907 183.515 204.119 183.08 205.364 183.071C206.608 183.061 208.068 183.864 207.874 184.959C207.679 186.055 206.316 186.366 205.169 186.489C203.208 186.715 201.222 186.715 199.261 186.489C198.797 186.48 198.355 186.314 198.028 186.026C197.476 185.412 198.211 184.497 199.055 184.213C199.937 184.067 200.797 183.836 201.62 183.524L201.652 183.515Z" fill="#FFA34D"/> <path d="M200.419 263.978C200.706 263.719 201.089 263.555 201.501 263.516C201.777 263.544 202.033 263.652 202.23 263.824C202.426 263.995 202.55 264.219 202.583 264.46C202.639 264.927 202.568 265.399 202.377 265.838C201.533 268.322 192.001 286.252 189.815 283.032C188.517 281.144 191.698 274.827 192.639 273.042C194.439 269.559 197.095 266.465 200.419 263.978Z" fill="#FFA34D"/> <path d="M195.777 181.268C195.777 181.268 195.203 176.915 196.415 176.547" stroke="#263238" stroke-linecap="round" stroke-linejoin="round"/> <path d="M194.76 176.707C195.365 175.166 196.425 173.792 197.833 172.723C199.337 171.778 201.739 171.703 202.832 173.015C204.054 174.479 202.832 176.698 200.96 177.481C199.088 178.265 196.892 178.029 194.836 177.774C194.836 177.51 194.836 177.245 194.836 176.981L194.76 176.707Z" fill="#FFA34D"/> <path d="M58.2656 284.458V191.163" stroke="#263238" stroke-linecap="round" stroke-linejoin="round"/> <path d="M392.063 284.458H378.851" stroke="#263238" stroke-linecap="round" stroke-linejoin="round"/> <path d="M495.664 284.458H468.755" stroke="#263238" stroke-linecap="round" stroke-linejoin="round"/> <path d="M377.64 142.726H425.323V103.089" stroke="#263238" stroke-linecap="round" stroke-linejoin="round"/> <path d="M99.717 130.621H150.376V162.865H205.905" stroke="#263238" stroke-linecap="round" stroke-linejoin="round"/> <path d="M69.8323 239.816V168.568" stroke="#263238" stroke-linecap="round" stroke-linejoin="round"/> <path d="M92.4675 137.646V193.485" stroke="#263238" stroke-linecap="round" stroke-linejoin="round"/> <path d="M115.092 137.646V187.008" stroke="#263238" stroke-linecap="round" stroke-linejoin="round"/> <path d="M137.717 137.646V223.992" stroke="#263238" stroke-linecap="round" stroke-linejoin="round"/> <path d="M246.101 125.4V68.626H338.211V125.4" stroke="#263238" stroke-linecap="round" stroke-linejoin="round"/> <path d="M252.853 96.8288V75.3674H269.883" stroke="#263238" stroke-linecap="round" stroke-linejoin="round"/> <path d="M273.627 96.8288V75.3674H290.658" stroke="#263238" stroke-linecap="round" stroke-linejoin="round"/> <path d="M294.401 96.8288V75.3674H311.432" stroke="#263238" stroke-linecap="round" stroke-linejoin="round"/> <path d="M315.176 96.8288V75.3674H332.206" stroke="#263238" stroke-linecap="round" stroke-linejoin="round"/> <path d="M252.853 125.4V103.938H269.883" stroke="#263238" stroke-linecap="round" stroke-linejoin="round"/> <path d="M273.627 125.4V103.938H290.658" stroke="#263238" stroke-linecap="round" stroke-linejoin="round"/> <path d="M294.401 125.4V103.938H311.432" stroke="#263238" stroke-linecap="round" stroke-linejoin="round"/> <path d="M315.176 125.4V103.938H332.206" stroke="#263238" stroke-linecap="round" stroke-linejoin="round"/> <path d="M432.703 107.999V179.143" stroke="#263238" stroke-linecap="round" stroke-linejoin="round"/> <path d="M466.147 279.246H468.755" stroke="#263238" stroke-linecap="round" stroke-linejoin="round"/> <path d="M452.752 128.431V208.082" stroke="#263238" stroke-linecap="round" stroke-linejoin="round"/> <path d="M472.812 258.908V279.246H488.815" stroke="#263238" stroke-linecap="round" stroke-linejoin="round"/> <path d="M472.812 154.396V208.488" stroke="#263238" stroke-linecap="round" stroke-linejoin="round"/> <path d="M492.862 195.44V279.246H496.508" stroke="#263238" stroke-linecap="round" stroke-linejoin="round"/> <path d="M248.525 286.167H41.8625V403.302H248.525V286.167Z" fill="white" stroke="#263238" stroke-linecap="round" stroke-linejoin="round"/> <path d="M41.8625 286.167L145.194 344.734L248.525 286.167H41.8625Z" fill="white" stroke="#263238" stroke-linecap="round" stroke-linejoin="round"/> <path d="M114.129 327.125L41.8625 403.302" stroke="#263238" stroke-linecap="round" stroke-linejoin="round"/> <path d="M176.82 327.125L249.087 403.302" stroke="#263238" stroke-linecap="round" stroke-linejoin="round"/> <path d="M359.116 136.702H311.075C309.691 136.703 308.333 137.028 307.142 137.642C305.951 138.257 304.97 139.138 304.302 140.195C303.121 142.054 301.392 143.604 299.293 144.683C297.194 145.762 294.803 146.331 292.367 146.331C289.931 146.331 287.54 145.762 285.441 144.683C283.343 143.604 281.613 142.054 280.433 140.195C279.769 139.125 278.787 138.23 277.589 137.607C276.391 136.984 275.022 136.655 273.627 136.655H225.64C224.323 136.64 223.015 136.851 221.792 137.277C220.568 137.703 219.453 138.336 218.51 139.138C217.566 139.94 216.813 140.897 216.293 141.953C215.773 143.009 215.497 144.144 215.48 145.294V381.737C215.517 384.058 216.608 386.271 218.513 387.89C220.417 389.51 222.981 390.404 225.64 390.376H359.116C361.776 390.404 364.341 389.51 366.247 387.891C368.154 386.271 369.247 384.058 369.287 381.737V145.341C369.249 143.019 368.157 140.804 366.25 139.184C364.343 137.564 361.777 136.672 359.116 136.702Z" fill="#FFA34D"/> <path d="M373.972 142.726C373.977 141.133 373.623 139.555 372.928 138.082C372.234 136.609 371.213 135.27 369.924 134.142C368.635 133.014 367.104 132.119 365.419 131.508C363.733 130.898 361.926 130.583 360.1 130.583H224.666C222.845 130.582 221.042 130.894 219.359 131.501C217.676 132.109 216.147 132.999 214.859 134.123C213.57 135.246 212.548 136.58 211.851 138.048C211.154 139.516 210.795 141.089 210.795 142.679V391.179C210.795 394.387 212.255 397.463 214.855 399.731C217.454 402 220.98 403.274 224.656 403.274H360.1C363.777 403.274 367.304 402 369.905 399.732C372.506 397.464 373.969 394.388 373.972 391.179V142.726ZM369.287 381.737C369.247 384.059 368.154 386.271 366.247 387.891C364.341 389.51 361.776 390.404 359.116 390.376H225.64C222.981 390.404 220.417 389.51 218.513 387.89C216.608 386.271 215.517 384.058 215.48 381.737V145.341C215.497 144.192 215.773 143.056 216.293 142C216.813 140.944 217.566 139.987 218.51 139.185C219.453 138.383 220.568 137.751 221.792 137.325C223.015 136.898 224.323 136.687 225.64 136.702H273.649C275.042 136.701 276.41 137.03 277.606 137.654C278.802 138.277 279.783 139.172 280.444 140.243C281.624 142.102 283.353 143.651 285.452 144.73C287.551 145.809 289.942 146.378 292.378 146.378C294.814 146.378 297.205 145.809 299.304 144.73C301.403 143.651 303.132 142.102 304.312 140.243C304.979 139.184 305.96 138.302 307.151 137.687C308.343 137.072 309.702 136.748 311.086 136.749H359.127C360.444 136.734 361.751 136.946 362.975 137.372C364.198 137.798 365.314 138.43 366.257 139.232C367.201 140.035 367.954 140.991 368.474 142.047C368.993 143.104 369.27 144.239 369.287 145.388V381.737Z" fill="#263238"/> <path opacity="0.2" d="M327.954 130.621L237.986 403.293L273.713 403.265L360.349 130.621H327.954Z" fill="white"/> <path opacity="0.2" d="M314.537 130.621L219.419 403.302L224.623 403.274L317.956 130.621H314.537Z" fill="white"/> <path d="M316.647 333.329C316.714 336.031 316.16 338.718 315.018 341.231C313.876 343.745 312.169 346.033 309.998 347.961C307.827 349.89 305.236 351.42 302.377 352.462C299.518 353.503 296.45 354.035 293.352 354.025C287.031 354.004 280.969 351.828 276.461 347.961C271.953 344.095 269.356 338.843 269.223 333.329C269.158 330.627 269.713 327.941 270.856 325.429C271.998 322.917 273.705 320.63 275.876 318.702C278.047 316.774 280.637 315.245 283.495 314.204C286.354 313.163 289.422 312.632 292.519 312.641C298.839 312.66 304.9 314.834 309.408 318.699C313.917 322.564 316.514 327.815 316.647 333.329Z" fill="white" stroke="#263238" stroke-linecap="round" stroke-linejoin="round"/> <path d="M285.161 348.776C282.959 348.065 280.94 346.98 279.221 345.584C277.488 344.131 276.146 342.361 275.293 340.401C274.321 338.203 273.84 335.863 273.876 333.508C273.862 331.5 274.269 329.506 275.077 327.626C275.811 325.889 276.912 324.287 278.323 322.905C281.104 320.25 284.697 318.343 288.677 317.41C290.632 316.95 292.648 316.718 294.672 316.72C296.353 316.714 298.028 316.888 299.66 317.24C301.234 317.577 302.741 318.121 304.128 318.854C305.502 319.574 306.733 320.483 307.775 321.545C308.86 322.691 309.69 324.004 310.22 325.416C310.827 327.028 311.126 328.715 311.107 330.411C311.084 333.689 309.731 336.854 307.288 339.343C306.237 340.382 304.993 341.26 303.609 341.94C302.415 342.537 301.068 342.862 299.692 342.884C298.742 342.895 297.814 342.633 297.052 342.138C296.669 341.891 296.358 341.569 296.142 341.199C295.926 340.829 295.812 340.419 295.808 340.004C295.098 340.946 294.124 341.713 292.978 342.234C291.832 342.755 290.553 343.011 289.262 342.978C288.246 343.018 287.233 342.859 286.297 342.512C285.361 342.166 284.525 341.641 283.852 340.977C282.501 339.607 281.787 337.845 281.85 336.038C281.859 334.552 282.155 333.077 282.726 331.676C283.295 330.265 284.101 328.935 285.118 327.73C286.131 326.545 287.422 325.564 288.905 324.85C290.387 324.12 292.061 323.739 293.763 323.745C294.946 323.735 296.114 323.981 297.16 324.463C298.177 324.935 299.001 325.671 299.519 326.568L299.735 325.936C299.908 325.493 300.275 325.127 300.756 324.92C301.237 324.713 301.792 324.681 302.3 324.831C302.496 324.889 302.682 324.972 302.852 325.076C303.013 325.189 303.141 325.333 303.226 325.497C303.311 325.661 303.349 325.841 303.339 326.021C303.339 326.197 303.306 326.373 303.241 326.54L299.735 336.718C299.426 337.494 299.227 338.299 299.14 339.116C299.108 339.269 299.119 339.426 299.173 339.574C299.227 339.722 299.322 339.856 299.449 339.964C299.576 340.072 299.732 340.152 299.903 340.195C300.074 340.238 300.254 340.244 300.428 340.212C301.669 340.142 302.831 339.659 303.674 338.862C304.843 337.853 305.741 336.631 306.303 335.283C306.975 333.811 307.32 332.241 307.32 330.657C307.335 329.261 307.101 327.873 306.628 326.54C306.23 325.391 305.6 324.313 304.767 323.358C303.978 322.488 303.022 321.744 301.943 321.158C300.866 320.566 299.691 320.123 298.459 319.846C297.194 319.556 295.892 319.41 294.585 319.411C292.927 319.413 291.278 319.617 289.684 320.016C288.042 320.421 286.479 321.035 285.042 321.838C283.594 322.635 282.282 323.608 281.147 324.727C279.977 325.906 279.067 327.263 278.463 328.73C277.784 330.328 277.443 332.021 277.457 333.725C277.422 335.744 277.841 337.749 278.691 339.626C279.423 341.252 280.579 342.706 282.066 343.875C283.503 344.964 285.163 345.806 286.957 346.358C288.85 346.943 290.846 347.237 292.854 347.227C295 347.227 297.134 346.944 299.184 346.387C299.388 346.323 299.605 346.291 299.822 346.292C300.025 346.29 300.226 346.324 300.413 346.394C300.599 346.464 300.767 346.568 300.904 346.698C301.042 346.824 301.15 346.972 301.223 347.134C301.295 347.296 301.33 347.469 301.326 347.642C301.352 347.917 301.263 348.191 301.076 348.413C300.89 348.635 300.617 348.791 300.309 348.851C297.755 349.532 295.102 349.889 292.432 349.909C289.951 349.906 287.49 349.522 285.161 348.776ZM294.098 338.984C295.168 338.314 295.961 337.36 296.36 336.265L298.621 329.325L298.47 329.042C298.329 328.815 298.158 328.602 297.961 328.409C297.69 328.137 297.393 327.884 297.074 327.654C296.668 327.372 296.211 327.151 295.721 327.003C294.441 326.612 293.039 326.656 291.794 327.125C291.111 327.377 290.485 327.732 289.943 328.173C289.38 328.632 288.879 329.145 288.45 329.703C288.021 330.284 287.658 330.901 287.368 331.544C287.064 332.188 286.829 332.855 286.665 333.536C286.501 334.184 286.418 334.846 286.416 335.51C286.406 335.936 286.435 336.362 286.503 336.784C286.553 337.16 286.647 337.53 286.784 337.889C286.903 338.223 287.074 338.541 287.292 338.833C287.488 339.097 287.738 339.327 288.028 339.513C288.338 339.709 288.686 339.853 289.056 339.938C289.488 340.048 289.937 340.099 290.387 340.089C291.741 340.104 293.061 339.725 294.142 339.013L294.098 338.984Z" fill="#FFA34D" stroke="#263238" stroke-linecap="round" stroke-linejoin="round"/> <path d="M316.117 262.392C316.182 265.094 315.627 267.78 314.484 270.292C313.342 272.804 311.635 275.091 309.464 277.019C307.294 278.946 304.703 280.475 301.845 281.516C298.987 282.557 295.919 283.088 292.822 283.079C286.502 283.06 280.44 280.886 275.932 277.021C271.424 273.156 268.826 267.906 268.693 262.392C268.625 259.689 269.178 257.001 270.32 254.487C271.461 251.974 273.167 249.685 275.339 247.756C277.51 245.827 280.102 244.297 282.961 243.256C285.821 242.215 288.89 241.684 291.989 241.695C298.31 241.716 304.371 243.892 308.879 247.759C313.387 251.626 315.984 256.877 316.117 262.392Z" fill="white" stroke="#263238" stroke-linecap="round" stroke-linejoin="round"/> <path d="M307.288 260.504C299.854 256.255 285.28 256.255 278.193 260.504C276.897 260.716 275.731 261.327 274.909 262.227C274.087 263.126 273.662 264.254 273.713 265.404C273.822 268.151 286.903 268.151 286.795 265.404C286.731 264.255 286.228 263.158 285.366 262.288C290.273 261.363 295.349 261.363 300.255 262.288C299.456 263.174 299.042 264.277 299.086 265.404C299.194 268.151 312.276 268.151 312.157 265.404C312.095 264.228 311.581 263.105 310.698 262.216C309.814 261.326 308.613 260.723 307.288 260.504Z" fill="#FFA34D" stroke="#263238" stroke-linecap="round" stroke-linejoin="round"/> <path d="M316.117 193.485C316.247 198.574 313.066 203.125 307.959 206.156V218.516L297.799 209.64C296.156 209.896 294.49 210.023 292.822 210.018C279.73 210.018 268.92 202.615 268.693 193.485C268.466 184.355 278.886 176.962 291.989 176.962C305.092 176.962 315.944 184.402 316.117 193.485Z" fill="white" stroke="#263238" stroke-linecap="round" stroke-linejoin="round"/> <path d="M282.304 193.485C282.307 194.016 282.128 194.535 281.792 194.978C281.455 195.42 280.976 195.765 280.415 195.969C279.854 196.174 279.236 196.228 278.639 196.126C278.042 196.023 277.493 195.769 277.063 195.394C276.632 195.02 276.338 194.542 276.219 194.021C276.099 193.501 276.159 192.961 276.392 192.471C276.624 191.98 277.018 191.561 277.523 191.266C278.029 190.971 278.623 190.813 279.232 190.813C280.045 190.813 280.825 191.094 281.401 191.595C281.977 192.096 282.302 192.776 282.304 193.485Z" fill="#FFA34D" stroke="#263238" stroke-linecap="round" stroke-linejoin="round"/> <path d="M295.451 193.485C295.453 194.016 295.275 194.535 294.938 194.978C294.602 195.42 294.123 195.765 293.562 195.969C293 196.174 292.382 196.228 291.785 196.126C291.188 196.023 290.64 195.769 290.209 195.394C289.778 195.02 289.484 194.542 289.365 194.021C289.246 193.501 289.306 192.961 289.538 192.471C289.77 191.98 290.164 191.561 290.67 191.266C291.175 190.971 291.77 190.813 292.378 190.813C293.191 190.813 293.971 191.094 294.547 191.595C295.123 192.096 295.448 192.776 295.451 193.485Z" fill="#FFA34D" stroke="#263238" stroke-linecap="round" stroke-linejoin="round"/> <path d="M308.597 193.485C308.599 194.016 308.421 194.535 308.085 194.978C307.748 195.42 307.269 195.765 306.708 195.969C306.146 196.174 305.528 196.228 304.931 196.126C304.335 196.023 303.786 195.769 303.355 195.394C302.924 195.02 302.631 194.542 302.511 194.021C302.392 193.501 302.452 192.961 302.684 192.471C302.917 191.98 303.31 191.561 303.816 191.266C304.322 190.971 304.916 190.813 305.524 190.813C306.337 190.813 307.117 191.094 307.693 191.595C308.269 192.096 308.594 192.776 308.597 193.485Z" fill="#FFA34D" stroke="#263238" stroke-linecap="round" stroke-linejoin="round"/> <path d="M159.92 231.168C159.536 231.791 158.982 232.323 158.307 232.716C153.316 236.191 148.209 239.524 142.986 242.715C141.071 243.886 139.08 245.094 137.23 246.407C126.107 252.903 132.902 254.489 126.107 268.236C124.506 271.522 124.798 287.621 124.798 287.621H124.246C122.944 286.499 121.559 285.452 120.102 284.486C119.901 284.368 119.691 284.26 119.474 284.165C119.271 284.073 119.052 284.013 118.825 283.985C117.743 283.929 113.621 284.363 109.455 284.127L108.373 284.052C107.767 283.995 107.172 283.929 106.577 283.834C105.982 283.74 105.408 283.636 104.857 283.504C100.903 282.398 97.027 281.093 93.2468 279.595L91.3641 278.887L90.4336 278.538L89.5896 278.216L88.9837 277.99L88.3994 277.773C87.4148 277.414 86.4951 277.083 85.6512 276.829C85.2643 276.707 84.8707 276.603 84.4718 276.517C84.4718 277.291 84.3311 278.084 84.2121 278.859C83.6927 282.55 82.535 285.959 80.4684 286.412C80.4258 286.422 80.3811 286.422 80.3385 286.412C80.1565 286.442 79.9719 286.458 79.7867 286.459H79.6244C79.1666 286.451 78.7134 286.378 78.2827 286.242C76.4072 285.544 74.8744 284.29 73.9547 282.701C73.5438 282.032 73.3143 281.289 73.2839 280.53C73.2839 277.782 72.4075 261.57 72.4075 256.85C72.4075 252.129 73.4895 243.867 76.1837 240.798C77.2366 239.497 78.5663 238.385 80.1005 237.522C82.0746 236.086 84.3387 234.984 86.7764 234.274C89.6546 233.453 96.0925 231.357 100.583 229.874L93.7986 232.159C95.519 234.727 99.2086 238.768 105.863 239.288C112.117 239.75 115.99 234.812 117.97 231.205C118.144 231.262 129.029 229.459 131.55 229.563C139.762 229.874 146.46 225.994 149.489 224.455C150.403 223.978 151.428 223.688 152.489 223.606C153.549 223.524 154.617 223.652 155.613 223.981C156.608 224.309 157.506 224.83 158.239 225.504C158.972 226.178 159.52 226.988 159.844 227.872V227.957C160.317 228.984 160.344 230.125 159.92 231.168Z" fill="#FFA34D" stroke="#263238" stroke-linecap="round" stroke-linejoin="round"/> <path d="M117.852 231.262L117.354 231.111" stroke="#263238" stroke-linecap="round" stroke-linejoin="round"/> <path d="M127.081 291.775C127.086 291.813 127.086 291.851 127.081 291.888C127.037 291.979 126.97 292.061 126.885 292.127C126.801 292.192 126.7 292.241 126.591 292.268C126.482 292.295 126.367 292.3 126.255 292.284C126.144 292.267 126.037 292.229 125.945 292.172C125.447 291.926 124.679 290.349 124.679 290.349L123.824 289.575L123.262 289.056C123.348 289.245 124.03 290.689 123.673 291.36C123.655 291.405 123.625 291.447 123.586 291.482C123.347 291.761 123.037 291.987 122.68 292.143C122.323 292.299 121.929 292.38 121.53 292.379C121.065 292.379 119.702 292.521 118.512 292.587H118.382C118.021 292.604 117.66 292.604 117.3 292.587C116.339 292.479 115.412 292.206 114.573 291.784C112.67 291.54 110.794 291.152 108.968 290.623L108.644 290.472L108.352 290.321C108.159 290.22 107.982 290.099 107.821 289.962C107.162 289.483 106.602 288.908 106.166 288.263C106.166 288.263 101.773 288.102 95.8761 287.706C93.7121 287.564 91.375 287.384 88.9513 287.177C85.2292 286.846 82.1563 286.865 79.7435 286.572H79.5704C79.0943 286.516 78.6507 286.44 78.2287 286.355C77.1989 286.18 76.2467 285.754 75.4812 285.128C74.7157 284.502 74.1679 283.7 73.9007 282.815C73.759 282.396 73.6434 281.97 73.5544 281.54L75.4371 278.707C76.4184 278.021 77.5127 277.467 78.6831 277.065C80.4991 276.402 82.5042 276.24 84.4285 276.602C84.8274 276.688 85.221 276.792 85.6079 276.913C86.4519 277.197 87.3716 277.527 88.3562 277.858L88.9513 278.075L89.5572 278.301L90.4012 278.622C95.2161 280.36 100.962 282.597 104.803 283.542C105.956 283.805 107.132 283.988 108.319 284.089L109.401 284.165C113.567 284.401 117.678 283.967 118.771 284.023C119.864 284.08 122.537 286.299 124.246 287.668C124.711 288.045 125.123 288.357 125.404 288.546L125.534 288.64L125.631 288.716C126.251 289.271 126.685 289.963 126.886 290.717C126.971 290.97 127.029 291.23 127.059 291.492C127.079 291.585 127.086 291.68 127.081 291.775Z" fill="white" stroke="#263238" stroke-linecap="round" stroke-linejoin="round"/> <path d="M127.081 291.775C127.086 291.813 127.086 291.851 127.081 291.888C127.036 291.979 126.968 292.059 126.883 292.124C126.798 292.189 126.697 292.236 126.588 292.262C126.479 292.288 126.365 292.293 126.253 292.276C126.142 292.258 126.037 292.22 125.945 292.162C125.41 291.62 124.982 291.004 124.679 290.34L123.824 289.575L123.261 289.065C123.337 289.216 124.041 290.689 123.683 291.369C123.665 291.415 123.636 291.457 123.597 291.492C123.477 291.631 123.339 291.758 123.186 291.869C122.719 292.196 122.14 292.376 121.541 292.379C121.065 292.379 119.713 292.511 118.533 292.587H118.382C118.021 292.604 117.66 292.604 117.3 292.587C116.345 292.476 115.423 292.207 114.584 291.794C112.68 291.545 110.805 291.153 108.979 290.623L108.665 290.491L108.373 290.34C108.186 290.232 108.009 290.112 107.843 289.981C107.174 289.497 106.606 288.916 106.166 288.263C106.166 288.263 101.903 288.102 96.1249 287.715C93.9609 287.573 91.4615 287.385 88.9512 287.167C85.5321 286.875 82.7081 286.79 80.4251 286.478L79.7218 286.365L78.9103 286.204C78.7232 285.047 78.8606 283.868 79.3106 282.767C79.73 281.839 80.3805 281.003 81.215 280.321C82.0496 279.638 83.0473 279.126 84.1364 278.821C85.4879 278.387 86.8726 278.037 88.2804 277.773L88.8647 277.99L89.4706 278.216L90.3146 278.537C95.216 280.379 100.897 282.607 104.748 283.523C105.901 283.788 107.078 283.968 108.265 284.061L109.347 284.137C113.513 284.382 117.624 283.948 118.717 284.004C119.81 284.061 122.472 286.27 124.127 287.639C124.503 287.953 124.896 288.249 125.306 288.527L125.436 288.612L125.534 288.687C126.165 289.235 126.601 289.93 126.789 290.689C126.874 290.942 126.932 291.201 126.962 291.463C127.017 291.562 127.057 291.667 127.081 291.775Z" fill="white" stroke="#263238" stroke-linecap="round" stroke-linejoin="round"/> <path d="M114.129 289.263C114.129 289.263 116.586 290.378 117.559 290.765C118.533 291.152 118.447 292.71 118.447 292.71" fill="white"/> <path d="M114.129 289.263C114.129 289.263 116.586 290.378 117.559 290.765C118.533 291.152 118.447 292.71 118.447 292.71" stroke="#263238" stroke-linecap="round" stroke-linejoin="round"/> <path d="M116.759 287.753C118.304 288.715 119.792 289.746 121.216 290.84C121.425 291.054 121.56 291.313 121.608 291.59C121.656 291.867 121.614 292.151 121.487 292.408" fill="white"/> <path d="M116.759 287.753C118.304 288.715 119.792 289.746 121.216 290.84C121.425 291.054 121.56 291.313 121.608 291.59C121.656 291.867 121.614 292.151 121.487 292.408" stroke="#263238" stroke-linecap="round" stroke-linejoin="round"/> <path d="M123.229 289.046C121.949 287.849 120.594 286.715 119.172 285.647L123.229 289.046Z" fill="white"/> <path d="M123.229 289.046C121.949 287.849 120.594 286.715 119.172 285.647" stroke="#263238" stroke-linecap="round" stroke-linejoin="round"/> <path d="M117.841 231.281C115.882 234.878 111.998 239.779 105.744 239.354C99.1221 238.863 95.4001 234.793 93.6797 232.216C96.0601 231.423 98.4729 230.611 100.453 229.931C100.453 228.175 100.388 226.069 100.172 223.983C100.172 223.529 100.063 223.038 100.009 222.613C99.9553 222.189 99.8904 221.886 99.8254 221.537H112.409C112.409 221.537 112.333 221.971 112.236 222.698C112.16 223.35 112.063 224.219 111.987 225.201C111.89 226.504 111.825 228.033 111.868 229.478C112.474 229.657 113.091 229.855 113.708 230.063L114.898 230.422C115.374 230.573 115.839 230.705 116.337 230.847L117.419 231.13C117.563 231.173 117.704 231.223 117.841 231.281Z" fill="white" stroke="#263238" stroke-linecap="round" stroke-linejoin="round"/> <path d="M100.009 222.576C100.009 222.576 102.357 227.901 105.766 228.807C109.174 229.714 112.258 222.698 112.258 222.698C112.258 222.698 107.453 227.174 105.668 226.475C103.883 225.776 100.031 222.613 100.031 222.613" fill="#263238"/> <path d="M97.9861 193.164C94.8063 195.662 92.285 198.732 90.596 202.162C89.0488 204.995 87.7395 208.252 88.9297 211.217C89.642 212.689 90.6496 214.038 91.9052 215.202C94.2424 217.647 97.5208 224.473 99.8579 226.919C100.009 222.566 95.8329 215.532 96.2765 211.878C96.8138 209.055 97.8774 206.328 99.4251 203.805C100.999 200.497 103.058 197.38 105.549 194.533C106.967 193.041 111.522 190.388 106.923 190.067C103.872 189.85 100.291 191.512 97.9861 193.164Z" fill="#263238" stroke="#263238" stroke-linecap="round" stroke-linejoin="round"/> <path d="M95.043 208.007C95.043 208.007 93.4308 205.278 91.7321 207.865C90.5094 209.754 92.2731 212.728 93.0305 213.832C93.2819 214.147 93.6223 214.399 94.0186 214.565C94.4149 214.73 94.8536 214.803 95.2919 214.777L95.043 208.007Z" fill="white" stroke="#263238" stroke-linecap="round" stroke-linejoin="round"/> <path d="M116.228 217.864C115.195 219.647 113.847 221.279 112.236 222.698L111.262 223.577C109.25 225.314 107.075 226.692 105.646 226.409C104.402 226.192 102.779 225.078 101.189 223.652C100.788 223.303 100.399 222.925 100.009 222.547C98.2775 220.894 96.7907 219.057 95.5839 217.081C95.2487 216.339 95.0338 215.561 94.9455 214.767C94.6725 212.402 94.5785 210.024 94.6642 207.648C94.6642 206.808 94.6642 206.137 94.6642 205.76C94.6642 204.117 101.719 198.405 101.719 198.405C101.909 198.344 102.113 198.324 102.314 198.348C103.527 198.541 104.697 198.904 105.776 199.424C110.05 201.237 116.012 204.834 116.445 206.204C117.105 208.196 116.856 216.089 116.228 217.864Z" fill="white" stroke="#263238" stroke-linecap="round" stroke-linejoin="round"/> <path d="M102.217 210.292C102.217 210.953 101.935 211.491 101.621 211.491C101.308 211.491 100.994 210.972 100.994 210.292C100.994 209.612 101.275 209.074 101.621 209.074C101.968 209.074 102.217 209.631 102.217 210.292Z" fill="#263238"/> <path d="M110.277 209.083C110.624 209.083 110.905 209.621 110.905 210.292C110.905 210.962 110.624 211.491 110.277 211.491C109.931 211.491 109.65 210.953 109.65 210.292C109.65 209.631 109.931 209.083 110.277 209.083Z" fill="#263238"/> <path d="M98.1917 207.318C98.1917 207.318 99.2737 205.429 103.104 206.005" stroke="#263238" stroke-linecap="round" stroke-linejoin="round"/> <path d="M113.837 207.318C113.837 207.318 112.755 205.429 108.925 206.005" stroke="#263238" stroke-linecap="round" stroke-linejoin="round"/> <path d="M106.75 214.909C107.139 214.887 107.51 214.758 107.808 214.538C108.107 214.319 108.316 214.022 108.406 213.691C108.406 213.691 106.307 210.858 106.945 208.082" stroke="#263238" stroke-linecap="round" stroke-linejoin="round"/> <path d="M93.6795 201.397C92.8078 202.429 92.1487 203.586 91.7319 204.815" stroke="white" stroke-linecap="round" stroke-linejoin="round"/> <path d="M102.725 193.844C102.725 193.844 101.524 195.581 96.2331 199.122C95.8921 199.337 95.5669 199.57 95.2593 199.821" stroke="white" stroke-linecap="round" stroke-linejoin="round"/> <path d="M85.7595 249.202C85.0381 258.178 84.3168 267.16 83.5955 276.149V275.459" fill="#263238"/> <path d="M85.7595 249.202C85.0381 258.178 84.3168 267.16 83.5955 276.149V275.459" stroke="#263238" stroke-linecap="round" stroke-linejoin="round"/> <path d="M154.109 219.564C155.087 219.23 156.144 219.111 157.187 219.216C158.23 219.322 159.228 219.648 160.093 220.168C161.818 221.235 163.074 222.784 163.652 224.559C164.342 226.326 164.273 228.252 163.458 229.978C163.036 230.829 162.357 231.564 161.494 232.105C160.631 232.645 159.615 232.971 158.556 233.047C156.978 233.029 155.453 232.547 154.228 231.678C150.182 229.034 148.158 221.802 154.109 219.564Z" fill="white" stroke="#263238" stroke-linecap="round" stroke-linejoin="round"/> <path d="M163.068 189.416C163.068 189.529 163.068 190.275 163.144 190.407C163.523 191.861 164.323 195.496 162.3 196.233C163.068 198.622 164.951 214.229 164.702 222.189C164.637 224.568 164.161 227.391 161.716 228.411C157.593 230.12 153.677 225.956 154.142 222.698C154.867 218.251 154.618 213.719 155.224 209.225C155.884 204.561 157.096 199.783 155.765 195.223C155.44 194.911 153.363 191.314 152.681 190.322C152.375 189.899 152.135 189.441 151.967 188.963C151.701 187.333 151.57 185.689 151.577 184.043C152.194 183.024 152.995 183.968 153.417 184.638C153.761 185.456 153.88 186.332 153.763 187.197C153.723 187.409 153.757 187.626 153.86 187.82C153.951 187.931 154.074 188.02 154.217 188.076C154.359 188.132 154.516 188.155 154.672 188.141C156.003 187.971 155.949 186.999 155.927 186.253C155.927 183.751 155.927 181.249 155.927 178.765C155.927 178.35 156.079 177.226 156.533 177.189C156.987 177.151 157.669 177.472 157.734 178.803C157.81 180.304 157.81 184.931 157.81 184.931C157.853 184.969 157.906 184.997 157.965 185.012C158.023 185.027 158.086 185.028 158.145 185.016C158.253 185.016 158.297 184.846 158.34 184.752C158.978 182.429 159.627 180.106 160.266 177.783C160.342 177.51 160.807 176.943 161.142 176.943C161.943 176.943 161.965 177.755 162.008 177.991C162.289 179.237 160.288 184.374 159.952 185.545C159.952 185.752 159.952 186.064 160.201 186.007L163.339 180.484C163.484 180.161 163.713 179.872 164.008 179.64C164.303 179.407 164.655 179.237 165.038 179.143C165.09 179.129 165.147 179.129 165.2 179.143C165.256 179.172 165.301 179.214 165.33 179.266C165.633 179.738 165.33 180.389 165.157 180.909C164.983 181.428 162.635 185.243 161.802 186.782C161.683 186.999 161.489 187.49 161.727 187.726C161.965 187.962 162.397 187.509 162.571 187.197C163.101 186.253 163.598 185.365 164.085 184.44C164.237 184.166 164.464 183.779 164.821 183.845C166.931 184.242 163.934 188.103 163.068 189.416Z" fill="white" stroke="#263238" stroke-linecap="round" stroke-linejoin="round"/> <path d="M157.247 188.604C158.336 189.357 159.282 190.255 160.049 191.266C160.428 191.775 160.681 192.346 160.793 192.944C160.904 193.542 160.872 194.154 160.699 194.741C160.646 194.894 160.577 195.043 160.493 195.185" fill="white"/> <path d="M157.247 188.604C158.336 189.357 159.282 190.255 160.049 191.266C160.428 191.775 160.681 192.346 160.793 192.944C160.904 193.542 160.872 194.154 160.699 194.741C160.646 194.894 160.577 195.043 160.493 195.185" stroke="#263238" stroke-linecap="round" stroke-linejoin="round"/> <path d="M126.767 247.587C127.912 249.602 128.683 251.763 129.05 253.989C129.364 256.217 129.461 257.964 127.719 264.224" stroke="#263238" stroke-linecap="round" stroke-linejoin="round"/> <path d="M102.346 196.988C102.198 197.374 102.161 197.786 102.238 198.187C102.443 198.692 102.821 199.131 103.32 199.443C106.778 202.088 110.647 204.294 114.811 205.996C115.333 206.114 115.786 206.399 116.08 206.794C116.374 207.188 116.489 207.665 116.401 208.13V215.428C116.455 216.181 116.371 216.936 116.153 217.666C115.547 219.365 114.205 220.734 113.231 222.302C112.241 223.788 111.74 225.484 111.781 227.202C111.511 225.399 118.739 221.905 120.697 214.805C120.968 213.804 126.594 207.846 123.218 200.85C119.972 194.137 114.865 191.248 113.145 190.898C111.977 190.6 110.745 190.549 109.55 190.75C108.355 190.95 107.232 191.396 106.274 192.05C104.383 193.279 103.004 195.013 102.346 196.988Z" fill="#263238" stroke="#263238" stroke-linecap="round" stroke-linejoin="round"/> <path d="M109.434 217.449C108.817 217.562 108.189 217.666 107.562 217.732C105.398 217.968 103.082 217.675 101.665 216.297C101.773 217.534 102.747 222.207 105.657 222.34C108.568 222.472 109.434 217.449 109.434 217.449Z" stroke="#263238" stroke-linecap="round" stroke-linejoin="round"/> <path d="M106.62 194.137C107.868 196.609 109.857 198.742 112.377 200.312C114.205 201.454 116.293 202.276 117.971 203.579C120.135 205.306 121.552 208.045 120.719 210.528" stroke="white" stroke-linecap="round" stroke-linejoin="round"/> <path d="M129.234 232.282C127.15 233.742 125.777 235.837 125.393 238.145C125.02 240.14 125.301 242.186 126.204 244.047" stroke="#263238" stroke-linecap="round" stroke-linejoin="round"/> <path d="M88.9295 247.861C88.7564 250.335 86.9928 252.478 85.2832 254.47L88.9295 247.861Z" fill="#263238"/> <path d="M88.9295 247.861C88.7564 250.335 86.9928 252.478 85.2832 254.47" stroke="#263238" stroke-linecap="round" stroke-linejoin="round"/> <path d="M84.7097 266.773C85.5691 268.029 86.7194 269.114 88.0869 269.959C89.4545 270.805 91.0092 271.392 92.6516 271.683" stroke="#263238" stroke-linecap="round" stroke-linejoin="round"/> <path d="M126.107 268.246C126.107 268.246 123.197 272.023 113.307 272.816" stroke="#263238" stroke-linecap="round" stroke-linejoin="round"/> <path d="M415.813 235.152C415.813 235.152 378.105 245.35 371.007 237.296L371.97 196.214H377.694L384.424 225.153L415.326 220.215C415.326 220.215 419.286 230.922 415.813 235.152Z" fill="white"/> <mask id="mask0_11_1112" style="mask-type:luminance" maskUnits="userSpaceOnUse" x="371" y="196" width="47" height="45"> <path d="M415.813 235.152C415.813 235.152 378.105 245.35 371.007 237.296L371.97 196.214H377.694L384.424 225.153L415.326 220.215C415.326 220.215 419.286 230.922 415.813 235.152Z" fill="white"/> </mask> <g mask="url(#mask0_11_1112)"> <path d="M399.929 236.587C397.767 237.338 395.703 238.287 393.772 239.42C396.326 240.128 399.053 239.231 401.606 238.523C404.978 237.619 408.416 236.913 411.896 236.408C412.058 235.568 410.814 233.651 410.327 232.905C409.44 231.602 409.245 231.489 407.752 232.131C405.036 233.321 402.721 235.388 399.929 236.587Z" fill="#FFA34D"/> </g> <path d="M415.813 235.152C415.813 235.152 378.105 245.35 371.007 237.296L371.97 196.214H377.694L384.424 225.153L415.326 220.215C415.326 220.215 419.286 230.922 415.813 235.152Z" stroke="#263238" stroke-linecap="round" stroke-linejoin="round"/> <path d="M412.112 236.229L418.734 271.806C418.561 294.863 431.166 291.397 439.92 291.331C450.036 291.256 465.39 282.503 457.859 268.879L460.759 219.564L443.133 218.393C437.323 217.996 413.519 218.648 411.625 221.301C406.713 228.184 412.112 236.229 412.112 236.229Z" fill="white"/> <mask id="mask1_11_1112" style="mask-type:luminance" maskUnits="userSpaceOnUse" x="409" y="218" width="52" height="74"> <path d="M412.112 236.229L418.734 271.806C418.561 294.863 431.166 291.397 439.92 291.331C450.036 291.256 465.39 282.503 457.859 268.879L460.759 219.564L443.133 218.393C437.323 217.996 413.519 218.648 411.625 221.301C406.713 228.184 412.112 236.229 412.112 236.229Z" fill="white"/> </mask> <g mask="url(#mask1_11_1112)"> <path d="M413.151 239.165C417.084 252.147 426.515 263.344 439.541 270.493C438.131 270.298 436.753 269.953 435.44 269.464C434.119 268.967 432.639 268.897 431.264 269.266C430.932 269.37 430.626 269.531 430.366 269.738C430.105 269.946 429.893 270.196 429.744 270.475C429.594 270.754 429.509 271.056 429.493 271.364C429.477 271.671 429.531 271.979 429.651 272.268C429.967 272.711 430.397 273.082 430.907 273.354C433.055 274.672 435.404 275.721 437.886 276.47C435.709 276.275 433.51 276.422 431.394 276.904C431.004 278.547 433.103 279.737 434.759 280.539C437.4 281.898 439.662 283.753 441.38 285.968C435.571 285.979 429.766 286.269 423.993 286.837C423.231 286.986 422.436 286.92 421.72 286.648C420.971 286.162 420.467 285.441 420.314 284.637C419.027 280.709 418.279 276.662 418.085 272.58C417.977 270.285 418.085 267.972 417.739 265.697C417.46 263.903 417.077 262.122 416.592 260.362C414.911 253.551 413.623 246.687 412.729 239.769C412.329 239.798 413.151 239.165 413.151 239.165Z" fill="#FFA34D"/> <path d="M457.848 236.332C456.389 235.924 455.028 235.284 453.834 234.444C454.17 235.86 456.593 238.306 458.011 239.061C458.303 239.222 458.725 239.354 458.985 239.137C459.244 238.92 459.417 238.362 459.677 238.193L457.848 236.332Z" fill="#FFA34D"/> </g> <path d="M412.112 236.229L418.734 271.806C418.561 294.863 431.166 291.397 439.92 291.331C450.036 291.256 465.39 282.503 457.859 268.879L460.759 219.564L443.133 218.393C437.323 217.996 413.519 218.648 411.625 221.301C406.713 228.184 412.112 236.229 412.112 236.229Z" stroke="#263238" stroke-linecap="round" stroke-linejoin="round"/> <path d="M424.999 217.666C423.102 220.696 422.189 224.121 422.359 227.57C422.357 227.871 422.423 228.17 422.554 228.448C423.04 229.289 424.371 229.289 425.443 229.393C429.608 229.855 432.194 233.689 436.122 234.973C436.26 235.047 436.413 235.096 436.573 235.117C436.733 235.138 436.896 235.131 437.053 235.096C437.209 235.06 437.356 234.998 437.484 234.912C437.613 234.826 437.72 234.718 437.799 234.595C439.508 232.707 440.114 230.054 442.452 228.836C443.469 228.307 444.756 228.09 445.46 227.259C446.26 226.315 445.903 224.955 445.514 223.803C444.875 221.915 444.161 219.951 442.506 218.638C440.742 217.437 438.575 216.774 436.338 216.75C433.064 216.516 429.768 216.785 426.6 217.543C426.644 217.902 424.999 217.666 424.999 217.666Z" fill="#FFA34D" stroke="#263238" stroke-linecap="round" stroke-linejoin="round"/> <path d="M477.368 241.809C474.723 238.449 472.775 234.71 471.611 230.762C471.188 228.784 470.528 226.85 469.642 224.993C468.807 223.558 467.601 222.312 466.119 221.353C464.638 220.395 462.921 219.75 461.105 219.469C460.33 219.32 459.524 219.353 458.768 219.564C457.199 220.083 456.507 221.66 456.193 223.095C455.514 226.177 455.715 229.359 456.777 232.357C457.502 234.397 466.212 249.183 471.925 254.914C471.428 252.025 475.236 242.366 477.368 241.809Z" fill="white"/> <mask id="mask2_11_1112" style="mask-type:luminance" maskUnits="userSpaceOnUse" x="455" y="219" width="23" height="36"> <path d="M477.368 241.809C474.723 238.449 472.775 234.71 471.611 230.762C471.188 228.784 470.528 226.85 469.642 224.993C468.807 223.558 467.601 222.312 466.119 221.353C464.638 220.395 462.921 219.75 461.105 219.469C460.33 219.32 459.524 219.353 458.768 219.564C457.199 220.083 456.507 221.66 456.193 223.095C455.514 226.177 455.715 229.359 456.777 232.357C457.502 234.397 466.212 249.183 471.925 254.914C471.428 252.025 475.236 242.366 477.368 241.809Z" fill="white"/> </mask> <g mask="url(#mask2_11_1112)"> <path d="M460.283 238.91L465.628 247.7C466.396 248.956 467.262 250.297 468.755 250.845C467.816 247.94 467.282 244.947 467.165 241.931C467.223 240.416 467.023 238.901 466.569 237.437C466.353 237.598 466.126 236.918 466.126 236.918C465.888 237.305 465.26 237.314 464.773 237.229C461.278 236.587 458.876 233.868 456.799 231.338C456.529 232.185 456.486 233.076 456.673 233.94C456.861 234.805 457.274 235.62 457.881 236.323C457.881 236.323 460.11 238.617 460.283 238.91Z" fill="#FFA34D"/> </g> <path d="M477.368 241.809C474.723 238.449 472.775 234.71 471.611 230.762C471.188 228.784 470.528 226.85 469.642 224.993C468.807 223.558 467.601 222.312 466.119 221.353C464.638 220.395 462.921 219.75 461.105 219.469C460.33 219.32 459.524 219.353 458.768 219.564C457.199 220.083 456.507 221.66 456.193 223.095C455.514 226.177 455.715 229.359 456.777 232.357C457.502 234.397 466.212 249.183 471.925 254.914C471.428 252.025 475.236 242.366 477.368 241.809Z" stroke="#263238" stroke-linecap="round" stroke-linejoin="round"/> <path d="M469.859 252.384C464.037 242.649 466.851 220.215 466.677 216.608L474.36 216.25C475.128 216.25 478.688 235.379 481.111 243.319C483.275 250.552 481.198 257.869 477.368 257.869C474.187 257.869 471.081 254.432 469.859 252.384Z" fill="white" stroke="#263238" stroke-linecap="round" stroke-linejoin="round"/> <path d="M400.492 227.108C405.902 220.215 416.516 219.667 416.516 219.667" stroke="#263238" stroke-linecap="round" stroke-linejoin="round"/> <path d="M379.62 230.969C381.256 229.658 382.539 228.045 383.374 226.249L379.62 230.969Z" fill="white"/> <path d="M379.62 230.969C381.256 229.658 382.539 228.045 383.374 226.249" stroke="#263238" stroke-linecap="round" stroke-linejoin="round"/> <path d="M419.816 263.544C422.9 267.953 442.874 272.665 450.837 271.655" stroke="#263238" stroke-linecap="round" stroke-linejoin="round"/> <path d="M425.464 275.988C431.218 276.852 437.115 276.656 442.776 275.412" stroke="#263238" stroke-linecap="round" stroke-linejoin="round"/> <path d="M451.962 233.207L455.771 237.711C456.29 238.325 457.015 239.014 457.87 238.844" stroke="#263238" stroke-linecap="round" stroke-linejoin="round"/> <path d="M480.267 404.048C479.932 405.247 479.824 406.673 480.808 407.57C481.793 408.467 483.221 408.448 484.552 408.429L489.129 408.354C490.894 408.431 492.658 408.19 494.312 407.646C495.139 407.365 495.847 406.87 496.341 406.226C496.834 405.583 497.089 404.822 497.071 404.048C496.958 403.45 496.739 402.87 496.422 402.33C496.01 401.556 495.599 400.772 495.199 399.998C490.146 390.282 482.431 396.193 480.267 404.048Z" fill="white" stroke="#263238" stroke-linecap="round" stroke-linejoin="round"/> <path d="M473.819 392.595C473.979 397.055 473.55 401.515 472.542 405.889C472.304 406.881 472.542 408.382 473.624 408.288C474.048 408.231 474.434 408.039 474.706 407.749C478.683 404.326 481.527 400.03 482.94 395.315C483.153 394.825 483.251 394.303 483.231 393.779C483.211 393.256 483.071 392.741 482.821 392.265C482.524 391.883 482.159 391.545 481.739 391.264C478.071 388.705 473.483 386.165 473.819 392.595Z" fill="white" stroke="#263238" stroke-linecap="round" stroke-linejoin="round"/> <path d="M461.257 278.471C461.257 278.471 466.959 287.12 468.182 289.131C469.404 291.142 495.232 320.762 500.187 342.327C501.118 346.425 482.064 392.255 482.064 392.255L477.736 390.121C477.736 390.121 480.744 348.322 480.008 344.848C479.272 341.373 460.261 315.729 460.261 315.729C460.261 315.729 449.647 308.921 445.276 301.009L461.257 278.471Z" fill="#263238"/> <path d="M461.874 300.141C461.874 300.141 458.628 306.448 458.628 307.354C458.628 308.261 476.481 357.491 481.728 368.877C485.046 376.211 487.971 383.714 490.503 391.387C490.503 391.387 492.537 393.719 491.001 396.108C489.465 398.497 483.351 400.064 482.096 397.93C480.841 395.796 468.474 384.711 463.258 373.683C458.043 362.655 450.707 344.225 446.531 337.361C441.06 328.589 436.204 319.537 431.989 310.253C426.741 298.536 421.374 285.902 421.374 285.902C423.554 286.074 425.744 286.127 427.931 286.063C433.082 285.91 438.182 285.121 443.079 283.721C454.483 280.379 459.417 273.977 459.417 273.977C459.417 273.977 462.241 280.653 462.977 281.946L461.874 300.141Z" fill="#263238"/> <path d="M498.283 346.547C497.165 348.218 495.662 349.668 493.868 350.806" stroke="white" stroke-linecap="round" stroke-linejoin="round"/> <path d="M499.679 343.8C499.516 344.26 499.321 344.711 499.094 345.15" stroke="white" stroke-linecap="round" stroke-linejoin="round"/> <path d="M451.562 285.43C454.44 289.755 457.134 295.977 456.702 300.962C456.47 301.867 456.106 302.743 455.62 303.568" stroke="white" stroke-linecap="round" stroke-linejoin="round"/> <path d="M434.142 290.236C434.455 292.644 434.877 296.647 434.271 299.008C433.76 301.422 432.172 303.561 429.857 304.956" stroke="white" stroke-linecap="round" stroke-linejoin="round"/> <path d="M458.682 281.125C459.31 281.808 459.821 282.569 460.196 283.381C460.929 284.549 461.936 285.568 463.152 286.372C464.368 287.176 465.765 287.746 467.251 288.046" stroke="white" stroke-linecap="round" stroke-linejoin="round"/> <path d="M449.495 290.774C453.315 298.063 456.236 305.371 462.166 317.759" stroke="white" stroke-linecap="round" stroke-linejoin="round"/> <path d="M447.461 287.045C447.786 287.611 448.1 288.178 448.413 288.744" stroke="white" stroke-linecap="round" stroke-linejoin="round"/> <path d="M479.25 342.808C481.001 345.752 483.227 348.462 485.861 350.853" stroke="white" stroke-linecap="round" stroke-linejoin="round"/> <path d="M481.057 345.528C482.204 350.148 484.297 354.549 487.236 358.52" stroke="white" stroke-linecap="round" stroke-linejoin="round"/> <path d="M454.159 345.764C445.73 330.071 436.739 314.502 425.691 290.774" stroke="white" stroke-linecap="round" stroke-linejoin="round"/> <path d="M456.063 350.324C455.857 349.777 455.641 349.229 455.414 348.672" stroke="white" stroke-linecap="round" stroke-linejoin="round"/> <path d="M485.201 398.572C483.037 396.108 467.262 376.856 463.345 368.131C460.737 362.315 458.768 358.208 456.853 352.411" stroke="white" stroke-linecap="round" stroke-linejoin="round"/> <path d="M479.25 361.522L486.748 380.755" stroke="white" stroke-linecap="round" stroke-linejoin="round"/> <path d="M474.197 216.259L471.925 216.42C469.046 216.866 466.089 216.747 463.269 216.07C461.462 215.683 457.275 214.55 456.777 214.475C455.533 214.242 454.276 214.066 453.012 213.946C449.192 213.747 451.129 212.501 452.72 212.558C454.819 212.643 455.522 212.605 457.134 212.709C456.939 212.614 456.344 212.511 456.334 212.105C456.334 211.113 457.827 211.16 457.827 211.16C457.827 211.16 456.193 210.556 456.42 209.81C456.647 209.064 457.74 208.866 458.433 208.923C458.433 208.923 457.513 208.536 457.556 208.12C457.751 206.515 461.527 206.402 461.527 206.402C460.614 206.046 459.759 205.585 458.984 205.033C458.702 204.767 458.504 204.442 458.411 204.088C458.391 203.92 458.423 203.75 458.503 203.596C458.584 203.443 458.711 203.311 458.87 203.214C459.029 203.118 459.215 203.06 459.409 203.048C459.602 203.036 459.795 203.069 459.969 203.144C460.946 203.712 461.889 204.323 462.793 204.976C463.962 205.703 465.314 206.166 466.548 206.817C467.75 207.715 468.72 208.825 469.393 210.075C469.588 210.339 474.197 216.259 474.197 216.259Z" fill="white" stroke="#263238" stroke-linecap="round" stroke-linejoin="round"/> <path d="M371.97 196.214V191.012C371.956 188.401 372.394 185.803 373.268 183.307C373.766 181.928 374.35 180.729 374.881 180.55C375.865 180.238 376.298 183.722 376.298 183.722C375.558 180.929 375.084 178.087 374.881 175.225C374.881 172.194 379.555 184.78 379.555 184.78L377.694 196.214H371.97Z" fill="white" stroke="#263238" stroke-linecap="round" stroke-linejoin="round"/> <path d="M377.618 187.754C378.184 187.373 378.606 186.854 378.83 186.262L377.618 187.754Z" fill="white"/> <path d="M377.618 187.754C378.184 187.373 378.606 186.854 378.83 186.262" stroke="#263238" stroke-linecap="round" stroke-linejoin="round"/> <path d="M422.932 207.063C424.953 210.032 426.071 213.402 426.178 216.854C426.373 222.595 433.99 230.63 436.165 231.017C438.34 231.404 440.353 221.953 440.255 219.092C440.158 216.231 438.946 208.328 438.946 208.328C438.946 208.328 428.526 201.454 422.932 207.063Z" fill="white" stroke="#263238" stroke-linecap="round" stroke-linejoin="round"/> <path d="M425.994 214.663C425.994 214.663 435.981 226.551 439.898 214.465C443.815 202.379 428.916 217.77 425.994 214.663Z" fill="#263238"/> <path d="M442.852 206.119C442.322 213.172 438.632 217.137 434.38 217.836C430.495 218.459 424.815 215.003 421.98 209.876C421.764 209.754 418.312 207.667 417.49 207.157C417.06 206.895 416.71 206.546 416.469 206.14C416.228 205.734 416.103 205.282 416.105 204.825C416.132 204.386 416.31 203.964 416.615 203.614C416.919 203.264 417.337 203.002 417.814 202.861H417.912C418.399 202.769 418.906 202.801 419.372 202.956C418.658 200.548 418.074 198.102 417.63 195.638C417.836 189.973 419.989 185.346 426.914 184.893C433.839 184.44 439.627 187.82 439.898 190.256C440.093 192.145 440.796 197.139 441.424 202.304C441.597 203.645 442.971 204.532 442.852 206.119Z" fill="white" stroke="#263238" stroke-linecap="round" stroke-linejoin="round"/> <path d="M439.898 197.961C439.898 197.961 435.44 196.176 436.197 201.974C436.349 203.116 438.783 204.806 438.783 204.806C438.783 204.806 438.156 206.515 436.998 206.515" fill="white"/> <path d="M439.898 197.961C439.898 197.961 435.44 196.176 436.197 201.974C436.349 203.116 438.783 204.806 438.783 204.806C438.783 204.806 438.156 206.515 436.998 206.515" stroke="#263238" stroke-linecap="round" stroke-linejoin="round"/> <path d="M431.285 199.944C431.285 199.944 429.013 198.735 427.455 199.481C426.642 199.789 425.95 200.298 425.464 200.944" fill="white"/> <path d="M431.285 199.944C431.285 199.944 429.013 198.735 427.455 199.481C426.642 199.789 425.95 200.298 425.464 200.944" stroke="#263238" stroke-linecap="round" stroke-linejoin="round"/> <path d="M429.987 203.286C430.16 203.985 429.987 204.608 429.522 204.693C429.056 204.778 428.602 204.268 428.44 203.569C428.277 202.871 428.44 202.247 428.916 202.162C429.392 202.078 429.825 202.578 429.987 203.286Z" fill="#263238"/> <path d="M438.773 201.246C438.946 201.945 438.773 202.568 438.308 202.653C437.842 202.738 437.388 202.228 437.226 201.539C437.063 200.85 437.226 200.208 437.691 200.132C438.156 200.057 438.61 200.557 438.773 201.246Z" fill="#263238"/> <path d="M417.111 188.321C416.32 188.997 415.771 189.86 415.531 190.804C414.883 192.8 414.696 194.889 414.98 196.949C415.264 199.009 416.014 200.999 417.187 202.804C417.908 202.727 418.639 202.753 419.351 202.88C420.108 203.05 421.082 204.183 421.439 204.768C421.752 205.392 421.932 206.061 421.969 206.742C421.796 204.948 421.634 203.163 421.461 201.369C421.345 200.652 421.381 199.922 421.569 199.216C422.099 197.743 421.515 194.269 421.666 191.163C426.157 195.95 432.681 195.1 434.845 194.939C438.091 194.703 440.861 191.805 440.688 189.737C440.515 187.669 439.876 182.344 429.175 181.796C426.818 181.577 424.441 182.01 422.38 183.033C421.727 183.409 421.173 183.901 420.753 184.477C420.333 185.053 420.058 185.7 419.946 186.375C419.794 187.244 420.173 187.32 419.416 187.745C418.658 188.169 417.858 187.763 417.111 188.321Z" fill="#263238" stroke="#263238" stroke-linecap="round" stroke-linejoin="round"/> <path d="M431.285 209.839C431.285 209.839 432.876 211.368 436.198 210.358L431.285 209.839Z" fill="white"/> <path d="M431.285 209.839C431.285 209.839 432.876 211.368 436.198 210.358" stroke="#263238" stroke-linecap="round" stroke-linejoin="round"/> </svg>