<svg width="1500" height="960" xmlns="http://www.w3.org/2000/svg">
    <defs>
        <filter x="-32.6%" y="-32.8%" width="165.2%" height="165.6%" filterUnits="objectBoundingBox" id="b">
            <feGaussianBlur stdDeviation="50" in="SourceGraphic"/>
        </filter>

        <linearGradient x1="0%" y1="0%" x2="0%" y2="0%" id="a">
            <stop stop-color="#FFEFE0" offset="%"/>
            <stop stop-color="#FFEFE0" offset="%"/>
        </linearGradient>
    </defs>
    <g transform="translate(-199 -204)" fill="url(#a)" fill-rule="nonzero">
        <path d="M496 122.1c-127.025 0-230 102.402-230 228.722 0 126.32 102.975 228.722 230 228.722s230-102.402 230-228.722c-.147-126.259-103.036-228.576-230-228.722Zm110.276 306.628a7.479 7.479 0 0 1-8.006 2.283l-101.772-32.726-101.772 32.726a7.479 7.479 0 0 1-8-2.287 7.306 7.306 0 0 1-.839-8.205l104.07-191.42a7.749 7.749 0 0 1 6.541-3.577 7.749 7.749 0 0 1 6.542 3.576L607.109 420.52a7.306 7.306 0 0 1-.833 8.21Z"
              filter="url(#b)" transform="translate(199 204)"/>
    </g>
</svg>