<svg xmlns="http://www.w3.org/2000/svg" xmlns:xlink="http://www.w3.org/1999/xlink" viewBox="51 73.68 403.29 363.32"><defs><clipPath id="freepik--clip-path--inject-1--inject-62"><path d="M98,212.5s-2.07,2.27-1.24,6.82,11.38,35.38,14.07,40.35,5.17,4.13,7.45,2.89,22.34-14.27,28.13-17.79,16.14-9.52,16.14-9.52,9.51,4.35,9.31,2.28.83-6-2.07-9.1-8.07-.83-10.34.83-18.62,8.48-25.86,11-11,3.52-11,3.52l-9.52-19.66" style="fill:#fff;stroke:#263238;stroke-linecap:round;stroke-linejoin:round"/></clipPath><clipPath id="freepik--clip-path-2--inject-1--inject-62"><path d="M137.19,197.13c-3.8,1.39-7.36,3-7.93,1.09-.62-2.07-2.69-8.89-2.69-8.89S112.5,178,110,180s8.07,20.69,6,21.51c-.74.3-3.36,1.17-6.34,2.41,1.34,2.19,4.46,6.1,11.31,10.21,10.34,6.21,12.62,7.86,12.62,7.86Z" style="fill:#fff;stroke:#263238;stroke-linecap:round;stroke-linejoin:round"/></clipPath><clipPath id="freepik--clip-path-3--inject-1--inject-62"><path d="M131.74,188.29s-6.2,5.59-5.17,7,5.17-3.93,5.17-3.93l2.28,1.24a10.52,10.52,0,0,0-2.9,3.1c-.62,1.45,0,2.48,1.24,3.93s1.45,3.31,3.11,3.31,2.07-2.27,2.07-2.27a18.92,18.92,0,0,0,2.69,3.72c1,.83,3.93,1,3.93,1s10.55,29,13,33.31,3.1,7.66,10.34,6.83,4.76-6.83,2.49-12.21-16.55-24-20.28-28.34-5.38-6.41-9.72-11.79S133,187.05,131.74,188.29Z" style="fill:#fff;stroke:#263238;stroke-linecap:round;stroke-linejoin:round"/></clipPath><clipPath id="freepik--clip-path-4--inject-1--inject-62"><path d="M143.53,345.17s-5.62,13.43-5.62,20.61.31,34.34-1.25,39.65-1.56,7.81.63,8.74,7.18.63,8.43,1.56,7.49,3.13,9.05,1.88-9.36-7.81-10.61-10.31,4.68-29.34,7.8-35.59,7.49-25.29,7.49-27.47S143.53,345.17,143.53,345.17Z" style="fill:#fff;stroke:#263238;stroke-linecap:round;stroke-linejoin:round"/></clipPath><clipPath id="freepik--clip-path-5--inject-1--inject-62"><path d="M111.69,346.42s-5,5.94-6.87,17.8-2.19,47.14-2.5,52.14-.62,5.93,2.5,7.49,10.3,5,12.17,5,2.5-1.25,0-5.62-9.36-6.25-9.36-10,15.61-47.15,17.48-54A48.35,48.35,0,0,0,127,347.67Z" style="fill:#fff;stroke:#263238;stroke-linecap:round;stroke-linejoin:round"/></clipPath><clipPath id="freepik--clip-path-6--inject-1--inject-62"><path d="M129.26,159.54a7.11,7.11,0,0,0-2.69-4.76c-2.48-1.86-11.58-2.28-15.51,2.69s-2.28,17.17-1.66,18.41c0,0-5.17-3.1-5.59,1.66s1.87,7,4.35,7a3.56,3.56,0,0,0,3.31-1.86s5.38,6.62,12.83,7.45,11.58-7.45,12.62-12.42S130.3,164.92,129.26,159.54Z" style="fill:#fff;stroke:#263238;stroke-linecap:round;stroke-linejoin:round"/></clipPath></defs><!--Photos--><g id="freepik--background-simple--inject-1--inject-62"><path d="M453.8,236.55c-1.59-8.37-6.94-15.45-12.14-22.2L354.38,101.13c-7-9.1-14.6-18.63-25.37-22.63-12.44-4.62-25.57-.86-38.36,4-6.06,1.72-12.74,4.66-19.91,7.59A225.29,225.29,0,0,1,233.14,99c-23.7-1.16-48-20.4-100.14-10-36.18,7.24-57.66,28-68.13,41.38A35.63,35.63,0,0,0,57,142.3c-4,9.87-4.05,20.93-2.64,31.49,3.92,29.34,18.47,56.83,19.56,86.41.72,19.36-4.42,38.48-11,56.69-4.56,12.62-9.9,26.32-5.59,39S75.09,376.69,88.51,378s26.76-3,39.13-8.33S152,357.79,165,354.22c26.55-7.3,54.9-1.74,81.23,6.31s52.2,18.62,79.58,21.53c15.24,1.62,31.95.36,43.73-9.44,18.65-15.5,17.32-44.81,30.8-65,8.61-12.89,22.55-21,34.29-31.11S456.7,251.78,453.8,236.55Z" style="fill:#F78E3D"/><path d="M453.8,236.55c-1.59-8.37-6.94-15.45-12.14-22.2L354.38,101.13c-7-9.1-14.6-18.63-25.37-22.63-12.44-4.62-25.57-.86-38.36,4-6.06,1.72-12.74,4.66-19.91,7.59A225.29,225.29,0,0,1,233.14,99c-23.7-1.16-48-20.4-100.14-10-36.18,7.24-57.66,28-68.13,41.38A35.63,35.63,0,0,0,57,142.3c-4,9.87-4.05,20.93-2.64,31.49,3.92,29.34,18.47,56.83,19.56,86.41.72,19.36-4.42,38.48-11,56.69-4.56,12.62-9.9,26.32-5.59,39S75.09,376.69,88.51,378s26.76-3,39.13-8.33S152,357.79,165,354.22c26.55-7.3,54.9-1.74,81.23,6.31s52.2,18.62,79.58,21.53c15.24,1.62,31.95.36,43.73-9.44,18.65-15.5,17.32-44.81,30.8-65,8.61-12.89,22.55-21,34.29-31.11S456.7,251.78,453.8,236.55Z" style="fill:#fff;opacity:0.7000000000000001"/></g><g id="freepik--Shadow--inject-1--inject-62"><ellipse cx="249.5" cy="422" rx="198.5" ry="15" style="fill:#F78E3D"/><ellipse cx="249.5" cy="422" rx="198.5" ry="15" style="fill:#fff;opacity:0.9"/></g><g id="freepik--picture-3--inject-1--inject-62"><rect x="220.91" y="117.92" width="203.86" height="168.54" style="fill:#F78E3D;opacity:0.5;mix-blend-mode:multiply"/><rect x="229.39" y="106.02" width="201.23" height="171.4" style="fill:#fff;stroke:#263238;stroke-linecap:round;stroke-linejoin:round"/><rect x="240.63" y="115.39" width="178.75" height="152.67" style="fill:#fff;stroke:#263238;stroke-linecap:round;stroke-linejoin:round"/><path d="M419.38,157.38a44.56,44.56,0,0,1-6.79-.16c-28.06-2.8-38.68-50.29-71.59-32.59-24.45,13.13-13.53,38.17-14,59.37-.4,18.16-10.66,37.56-31.35,33.42-28.21-5.64-16.62-39.1-38.06-49.82a38.6,38.6,0,0,0-17-4V268.06H419.38Z" style="fill:#F78E3D;stroke:#263238;stroke-linecap:round;stroke-linejoin:round"/><circle cx="277.95" cy="142.55" r="14.99" style="fill:#F78E3D;stroke:#263238;stroke-linecap:round;stroke-linejoin:round"/></g><g id="freepik--picture-2--inject-1--inject-62"><rect x="183.99" y="268.8" width="160.52" height="136.44" style="fill:#F78E3D;opacity:0.6000000000000001;mix-blend-mode:multiply"/><rect x="190.05" y="259.63" width="161.64" height="137.68" style="fill:#fff;stroke:#263238;stroke-linecap:round;stroke-linejoin:round"/><rect x="199.08" y="267.15" width="143.59" height="122.64" style="fill:#F78E3D;stroke:#263238;stroke-linecap:round;stroke-linejoin:round"/><circle cx="226.29" cy="310.42" r="12.04" transform="translate(-116.48 483.86) rotate(-80.75)" style="fill:#fff;stroke:#263238;stroke-linecap:round;stroke-linejoin:round"/><path d="M342.67,270.08c-.68.2-1.35.4-2,.62-32.53,10.38-16.61,51.9-37.37,74s-46.36,9.69-73.35,4.85a68.92,68.92,0,0,0-30.83,1.23v39H342.67Z" style="fill:#fff;stroke:#263238;stroke-linecap:round;stroke-linejoin:round"/></g><g id="freepik--picture-1--inject-1--inject-62"><rect x="71.62" y="81" width="163.73" height="171.75" style="fill:#F78E3D;opacity:0.6000000000000001;mix-blend-mode:multiply"/><rect x="78.59" y="74.18" width="201.23" height="171.4" style="fill:#fff;stroke:#263238;stroke-linecap:round;stroke-linejoin:round"/><rect x="89.83" y="83.55" width="178.75" height="152.67" style="fill:#fff;stroke:#263238;stroke-linecap:round;stroke-linejoin:round"/><path d="M268.58,114.57l-76.8,64.51-23.64-28.66a10.61,10.61,0,0,0-15.52-.92L89.83,209.42v26.79H268.58Z" style="fill:#F78E3D;stroke:#263238;stroke-linecap:round;stroke-linejoin:round"/><circle cx="127.15" cy="110.71" r="14.99" transform="translate(-9.95 208.82) rotate(-76.63)" style="fill:#F78E3D;stroke:#263238;stroke-linecap:round;stroke-linejoin:round"/></g><g id="freepik--Plant--inject-1--inject-62"><path d="M409.93,389.67c-6.45,0-11.68,1.91-11.68,4.25v4.6a2,2,0,0,0,.67,1.4l1.81,16.3c0,1.84,4.12,3.34,9.2,3.34s9.2-1.5,9.2-3.34L421,399.91a2,2,0,0,0,.66-1.39v-4.6C421.61,391.58,416.38,389.67,409.93,389.67Z" style="fill:#263238;stroke:#263238;stroke-linecap:round;stroke-linejoin:round"/><path d="M413.41,370.18c-.06,0,1.55-4,1.68-4.24,1.51-2.78,6.07-7.27,9.56-6.62a4.21,4.21,0,0,1,3.09,5.43c-.71,2.4-3.3,4.08-5.51,4.91C419.63,370.64,413.42,370.18,413.41,370.18Z" style="fill:#263238"/><path d="M416.5,353.38c-.06,0,2.14-3.72,2.3-3.94,1.92-2.52,7.1-6.27,10.45-5.09a4.19,4.19,0,0,1,2.23,5.83c-1.06,2.27-3.87,3.54-6.19,4C422.57,354.78,416.51,353.38,416.5,353.38Z" style="fill:#263238"/><path d="M423.89,335.34c-.06,0,2.14-3.72,2.3-3.93,1.92-2.53,7.1-6.27,10.45-5.1a4.2,4.2,0,0,1,2.23,5.84c-1.06,2.26-3.87,3.53-6.19,4C430,336.74,423.89,335.35,423.89,335.34Z" style="fill:#263238"/><path d="M430,318c-.06,0,2.14-3.72,2.31-3.93,1.91-2.53,7.1-6.27,10.44-5.1A4.21,4.21,0,0,1,445,314.8c-1.07,2.26-3.88,3.53-6.19,4C436.11,319.39,430,318,430,318Z" style="fill:#263238"/><path d="M431.13,302.21c-.06,0,1.08-4.15,1.18-4.41,1.18-2.93,5.19-7.92,8.73-7.67a4.2,4.2,0,0,1,3.7,5c-.43,2.47-2.81,4.43-4.91,5.51C437.36,302,431.13,302.21,431.13,302.21Z" style="fill:#263238"/><path d="M411.78,369.45c.06,0,.06-4.29,0-4.56-.36-3.15-2.91-9-6.39-9.71a4.2,4.2,0,0,0-4.9,3.88c-.24,2.5,1.54,5,3.28,6.62C405.85,367.56,411.78,369.45,411.78,369.45Z" style="fill:#263238"/><path d="M416.63,351c.07,0-.59-4.25-.66-4.52-.83-3.05-4.24-8.46-7.79-8.62a4.19,4.19,0,0,0-4.25,4.57c.14,2.5,2.28,4.73,4.24,6.05C410.48,350,416.63,351,416.63,351Z" style="fill:#263238"/><path d="M423.64,334c.06,0-.59-4.25-.67-4.52-.83-3.05-4.24-8.46-7.79-8.62a4.2,4.2,0,0,0-4.25,4.57c.14,2.5,2.28,4.73,4.24,6.05C417.48,333,423.63,334,423.64,334Z" style="fill:#263238"/><path d="M429.33,318c.06,0-.6-4.25-.67-4.51-.83-3.06-4.24-8.47-7.79-8.63a4.2,4.2,0,0,0-4.25,4.58c.14,2.5,2.28,4.72,4.24,6C423.17,317.07,429.32,318,429.33,318Z" style="fill:#263238"/><path d="M430.92,302.73c.06,0-1.05-4.16-1.15-4.42-1.17-2.94-5.15-7.95-8.69-7.72a4.21,4.21,0,0,0-3.73,5c.42,2.47,2.78,4.45,4.88,5.54C424.69,302.44,430.92,302.73,430.92,302.73Z" style="fill:#263238"/><path d="M429.39,288.7c.05,0,1-4.18,1-4.45.32-3.15-.91-9.43-4.16-10.86a4.21,4.21,0,0,0-5.62,2.74c-.77,2.38.42,5.23,1.78,7.16C424,285.57,429.38,288.69,429.39,288.7Z" style="fill:#263238"/><path d="M409.24,392.7s.06-1.82.29-5,.62-7.63,1.34-13c.35-2.68.79-5.57,1.33-8.62.26-1.54.57-3.06.89-4.7.19-.79.37-1.59.56-2.39s.45-1.62.68-2.44a96,96,0,0,1,3.55-9.83c1.37-3.27,2.86-6.53,4.34-9.8s2.92-6.52,4.18-9.8a72.35,72.35,0,0,0,3.07-9.81,54.07,54.07,0,0,0,1.19-9.54,73.9,73.9,0,0,0-.15-8.64c-.18-2.68-.5-5.12-.81-7.28s-.67-4-1-5.56c-.63-3.07-1.13-4.79-1.13-4.79s.53,1.71,1.23,4.77c.35,1.53.74,3.39,1.11,5.55s.73,4.59,1,7.28a75,75,0,0,1,.35,8.69,55.06,55.06,0,0,1-1,9.68,72.79,72.79,0,0,1-2.89,10c-1.2,3.34-2.59,6.66-4,10s-2.82,6.59-4.11,9.86a94.09,94.09,0,0,0-3.28,9.71c-.2.8-.45,1.56-.6,2.38l-.51,2.4c-.27,1.54-.55,3.12-.77,4.62-.48,3-.85,5.9-1.14,8.56-.59,5.32-.88,9.77-1,12.88s-.18,4.88-.18,4.88a1.25,1.25,0,1,1-2.49,0v0Z" style="fill:#263238"/><path d="M399.56,375.51c-.05,0-.93-3.48-1-3.71-.34-2.65.54-7.95,3.24-9.23a3.52,3.52,0,0,1,4.78,2.16c.71,2-.22,4.41-1.32,6.07C404,372.75,399.56,375.51,399.56,375.51Z" style="fill:#263238"/><path d="M393.35,362.55c-.05,0-.38-3.59-.38-3.82.06-2.66,1.73-7.78,4.59-8.63A3.54,3.54,0,0,1,402,353c.4,2.07-.89,4.32-2.23,5.8C398.18,360.5,393.35,362.55,393.35,362.55Z" style="fill:#263238"/><path d="M389.46,346.62s-.38-3.59-.38-3.82c.06-2.66,1.74-7.78,4.6-8.63a3.52,3.52,0,0,1,4.4,2.86c.4,2.07-.89,4.33-2.23,5.8C394.29,344.57,389.47,346.62,389.46,346.62Z" style="fill:#263238"/><path d="M385.07,331.77c-.06,0-.39-3.59-.39-3.82.06-2.66,1.74-7.78,4.6-8.63a3.53,3.53,0,0,1,4.4,2.87c.4,2.07-.89,4.32-2.22,5.8C389.89,329.72,385.07,331.77,385.07,331.77Z" style="fill:#263238"/><path d="M378,320.49c-.05,0-1.32-3.36-1.38-3.59-.65-2.58-.38-8,2.15-9.54a3.54,3.54,0,0,1,5,1.6c.93,1.9.28,4.41-.62,6.19C382.12,317.23,378,320.48,378,320.49Z" style="fill:#263238"/><path d="M398.09,375.82c.05,0-2.08-2.94-2.24-3.11-1.8-2-6.44-4.7-9.15-3.45a3.53,3.53,0,0,0-1.41,5.06c1.07,1.82,3.52,2.66,5.5,2.88C393.11,377.47,398.08,375.83,398.09,375.82Z" style="fill:#263238"/><path d="M392.26,360.86c.05,0-2.5-2.6-2.68-2.74-2.08-1.67-7.08-3.67-9.57-2a3.54,3.54,0,0,0-.63,5.22c1.33,1.63,3.89,2.09,5.88,2C387.59,363.25,392.26,360.86,392.26,360.86Z" style="fill:#263238"/><path d="M388.62,345.83c.05,0-2.5-2.6-2.68-2.75-2.08-1.66-7.08-3.66-9.57-2a3.54,3.54,0,0,0-.63,5.22c1.33,1.63,3.89,2.09,5.88,2C384,348.21,388.62,345.83,388.62,345.83Z" style="fill:#263238"/><path d="M384.61,332.15s-2.51-2.6-2.69-2.74c-2.08-1.67-7.07-3.66-9.56-2a3.53,3.53,0,0,0-.64,5.22c1.34,1.63,3.89,2.09,5.88,2C379.93,334.54,384.6,332.16,384.61,332.15Z" style="fill:#263238"/><path d="M378.12,320.94s-2.78-2.31-3-2.43c-2.25-1.43-7.44-2.87-9.73-1a3.53,3.53,0,0,0-.06,5.26c1.51,1.47,4.1,1.65,6.06,1.35C373.74,323.82,378.11,320.94,378.12,320.94Z" style="fill:#263238"/><path d="M370.14,312.15c.05,0-1.4-3.33-1.52-3.53-1.34-2.3-5.28-6-8.19-5.33a3.53,3.53,0,0,0-2.47,4.64c.65,2,2.87,3.35,4.75,4C364.92,312.69,370.13,312.15,370.14,312.15Z" style="fill:#263238"/><path d="M407.85,392.91s-.86-1.27-2.25-3.52-3.35-5.5-5.51-9.5c-1.09-2-2.22-4.18-3.36-6.53-.58-1.17-1.12-2.36-1.71-3.64-.27-.63-.53-1.26-.8-1.9s-.5-1.33-.75-2a77.7,77.7,0,0,1-2.44-8.44c-.68-2.91-1.28-5.87-1.9-8.82s-1.23-5.89-2-8.74a61.17,61.17,0,0,0-2.76-8.2,46,46,0,0,0-3.9-7.08,65.42,65.42,0,0,0-4.38-5.8c-1.45-1.74-2.87-3.24-4.15-4.56s-2.45-2.41-3.42-3.3c-1.95-1.77-3.14-2.7-3.14-2.7s1.21.9,3.2,2.64c1,.87,2.18,1.94,3.5,3.23s2.77,2.76,4.26,4.47a65.56,65.56,0,0,1,4.53,5.75,46.09,46.09,0,0,1,4.11,7.08,62.74,62.74,0,0,1,3,8.24c.84,2.87,1.53,5.81,2.21,8.75s1.34,5.88,2.07,8.74a78.43,78.43,0,0,0,2.58,8.23c.26.65.46,1.29.76,1.92s.57,1.26.84,1.88c.58,1.18,1.17,2.4,1.76,3.53,1.18,2.3,2.35,4.44,3.46,6.39,2.23,3.91,4.23,7.08,5.66,9.28s2.29,3.41,2.29,3.41a1.05,1.05,0,0,1-.25,1.46,1,1,0,0,1-1.46-.25h0Z" style="fill:#263238"/></g><g id="freepik--Character--inject-1--inject-62"><path d="M126.57,189.33s2.07,6.82,2.69,8.89,4.76,0,8.9-1.44,13.65-6.21,15.72-4.35,18.2,43,17.38,46.13-1.86,5-7.24,3.73-7.45-6.83-7.45-6.83L153.88,245A85,85,0,0,1,162,263.6c2.69,9.72,8.27,41.17,8.69,50.06s3.1,28.76,3.1,28.76-2.07,1.86-12.62,3.93-15.93,2.07-15.93,2.07l.21,3.31a57,57,0,0,1-21.72.41,86.81,86.81,0,0,1-19.87-5.59s8.28-33.92,8.07-41.37-2.07-13.65-1.65-20.69,5-17.79,5-17.79,3.31-6.21-1.45-18.21-12.61-30-14.68-35.37,14.89-10.76,17-11.59-8.48-19.44-6-21.51S126.57,189.33,126.57,189.33Z" style="fill:#F78E3D;stroke:#263238;stroke-linecap:round;stroke-linejoin:round"/><path d="M98,212.5s-2.07,2.27-1.24,6.82,11.38,35.38,14.07,40.35,5.17,4.13,7.45,2.89,22.34-14.27,28.13-17.79,16.14-9.52,16.14-9.52,9.51,4.35,9.31,2.28.83-6-2.07-9.1-8.07-.83-10.34.83-18.62,8.48-25.86,11-11,3.52-11,3.52l-9.52-19.66" style="fill:#fff"/><g style="clip-path:url(#freepik--clip-path--inject-1--inject-62)"><path d="M117.2,256.83c-3.35-.84-6.71-7.55-6.71-7.55s2.94-2.93,6.29-6.71a13.55,13.55,0,0,0,2.81-5.14l-6.47-13.35h0l-11.43.88s-1,1.08-2.45,2.78c3.5,10.91,9.65,28.3,11.61,31.93,2.69,5,5.17,4.13,7.45,2.89s22.34-14.27,28.13-17.79,16.14-9.52,16.14-9.52a56,56,0,0,0,6.36,2.44c-1.14-3.39-2.25-6.44-2.25-6.44H155.63c-.77.36-1.61.74-2.51,1.14l-.7,5.57" style="fill:#F78E3D;opacity:0.5;mix-blend-mode:multiply"/><path d="M143.53,345.17s-5.62,13.43-5.62,20.61.31,34.34-1.25,39.65-1.56,7.81.63,8.74c0-4.09,1.71-16.87,5.07-34.49S144.45,355,144.45,355s6.29-1.26,9.23-2.1a45.53,45.53,0,0,0,4.47-1.68,53.63,53.63,0,0,0,1.3-6.93C159.45,342.05,143.53,345.17,143.53,345.17Z" style="fill:#F78E3D;opacity:0.5;mix-blend-mode:multiply"/></g><path d="M98,212.5s-2.07,2.27-1.24,6.82,11.38,35.38,14.07,40.35,5.17,4.13,7.45,2.89,22.34-14.27,28.13-17.79,16.14-9.52,16.14-9.52,9.51,4.35,9.31,2.28.83-6-2.07-9.1-8.07-.83-10.34.83-18.62,8.48-25.86,11-11,3.52-11,3.52l-9.52-19.66" style="fill:none;stroke:#263238;stroke-linecap:round;stroke-linejoin:round"/><path d="M169.81,228.43c-2.9-3.11-8.07-.83-10.34.83q-.28.19-.81.48a12.21,12.21,0,0,1,2.25,3.86c.26.77.46,1.53.63,2.25l1-.6s9.51,4.35,9.31,2.28S172.71,231.53,169.81,228.43Z" style="fill:#fff;stroke:#263238;stroke-linecap:round;stroke-linejoin:round"/><path d="M137.19,197.13c-3.8,1.39-7.36,3-7.93,1.09-.62-2.07-2.69-8.89-2.69-8.89S112.5,178,110,180s8.07,20.69,6,21.51c-.74.3-3.36,1.17-6.34,2.41,1.34,2.19,4.46,6.1,11.31,10.21,10.34,6.21,12.62,7.86,12.62,7.86Z" style="fill:#fff"/><g style="clip-path:url(#freepik--clip-path-2--inject-1--inject-62)"><path d="M126.57,189.33s-12.81-10.36-16.13-9.5l-.55.35c-1.2,1.72,2.38,9.49,4.66,15.17a15.23,15.23,0,0,0,5.17.26,34.53,34.53,0,0,0,7.72-3.42C127,190.59,126.57,189.33,126.57,189.33Z" style="fill:#F78E3D;opacity:0.5;mix-blend-mode:multiply"/></g><path d="M137.19,197.13c-3.8,1.39-7.36,3-7.93,1.09-.62-2.07-2.69-8.89-2.69-8.89S112.5,178,110,180s8.07,20.69,6,21.51c-.74.3-3.36,1.17-6.34,2.41,1.34,2.19,4.46,6.1,11.31,10.21,10.34,6.21,12.62,7.86,12.62,7.86Z" style="fill:none;stroke:#263238;stroke-linecap:round;stroke-linejoin:round"/><path d="M128.37,161.74s4.53-8.15.18-14.82c-6.39-9.77-20.3-9.36-31.22-1.56C86.61,153,85.9,167.92,85.65,176.78s4,16.93-.76,23.64S73,213.85,75.29,226.47s8.34,16.93,25.78,16.93,25.34-17.18,21.54-28.73-7.8-21.53-7.8-25.29-11-25.22-1.35-28.17S128.37,161.74,128.37,161.74Z" style="fill:#263238;stroke:#263238;stroke-linecap:round;stroke-linejoin:round"/><path d="M122,153.72a11,11,0,0,0-12.86,1.2c-6.59,5.38-9.28,13.76-9.28,22.74s9,27.23,11.67,38.6.3,26-16.46,26.63" style="fill:none;stroke:#fff;stroke-linecap:round;stroke-linejoin:round;stroke-width:0.5px"/><path d="M124.4,154s-2.4-9.57-15.86-7.78S89.69,169,91.48,181.85s17.06,35.9,18.25,43.68-1.49,11.5-1.49,11.5" style="fill:none;stroke:#fff;stroke-linecap:round;stroke-linejoin:round;stroke-width:0.5px"/><path d="M94.47,192.62s2.7,6.58.9,21.24-12,18.56-14.06,13.77.9-8.68,3.89-9" style="fill:none;stroke:#fff;stroke-linecap:round;stroke-linejoin:round;stroke-width:0.5px"/><path d="M132.91,192.61s-3.53-.17-4,1,4.81,1.76,4.81,1.76Z" style="fill:#fff;stroke:#263238;stroke-linecap:round;stroke-linejoin:round"/><path d="M131.74,188.29s-6.2,5.59-5.17,7,5.17-3.93,5.17-3.93l2.28,1.24a10.52,10.52,0,0,0-2.9,3.1c-.62,1.45,0,2.48,1.24,3.93s1.45,3.31,3.11,3.31,2.07-2.27,2.07-2.27a18.92,18.92,0,0,0,2.69,3.72c1,.83,3.93,1,3.93,1s10.55,29,13,33.31,3.1,7.66,10.34,6.83,4.76-6.83,2.49-12.21-16.55-24-20.28-28.34-5.38-6.41-9.72-11.79S133,187.05,131.74,188.29Z" style="fill:#fff"/><g style="clip-path:url(#freepik--clip-path-3--inject-1--inject-62)"><path d="M163,239.33c-4-5-16-31.33-18.84-33.87,0,0,10.55,29,13,33.31s3.1,7.66,10.34,6.83a6.74,6.74,0,0,0,3.42-1.19A16,16,0,0,1,163,239.33Z" style="fill:#F78E3D;opacity:0.5;mix-blend-mode:multiply"/></g><path d="M131.74,188.29s-6.2,5.59-5.17,7,5.17-3.93,5.17-3.93l2.28,1.24a10.52,10.52,0,0,0-2.9,3.1c-.62,1.45,0,2.48,1.24,3.93s1.45,3.31,3.11,3.31,2.07-2.27,2.07-2.27a18.92,18.92,0,0,0,2.69,3.72c1,.83,3.93,1,3.93,1s10.55,29,13,33.31,3.1,7.66,10.34,6.83,4.76-6.83,2.49-12.21-16.55-24-20.28-28.34-5.38-6.41-9.72-11.79S133,187.05,131.74,188.29Z" style="fill:none;stroke:#263238;stroke-linecap:round;stroke-linejoin:round"/><path d="M137.67,199c-2.34,0-2.2,4-2.2,4,1.65,0,2.07-2.27,2.07-2.27a18.92,18.92,0,0,0,2.69,3.72c1,.83,3.93,1,3.93,1C141.31,202.93,140,199,137.67,199Z" style="fill:#F78E3D;mix-blend-mode:multiply"/><path d="M132.11,199.18s-.48-2.24,0-2.88a35.66,35.66,0,0,1,2.57-2.57" style="fill:none;stroke:#263238;stroke-linecap:round;stroke-linejoin:round;stroke-width:0.5px"/><path d="M133.39,201.11s-.64-3.21,0-3.69,3.37-2.09,3.37-2.09" style="fill:none;stroke:#263238;stroke-linecap:round;stroke-linejoin:round;stroke-width:0.5px"/><path d="M143.53,345.17s-5.62,13.43-5.62,20.61.31,34.34-1.25,39.65-1.56,7.81.63,8.74,7.18.63,8.43,1.56,7.49,3.13,9.05,1.88-9.36-7.81-10.61-10.31,4.68-29.34,7.8-35.59,7.49-25.29,7.49-27.47S143.53,345.17,143.53,345.17Z" style="fill:#fff"/><g style="clip-path:url(#freepik--clip-path-4--inject-1--inject-62)"><path d="M143.53,345.17s-5.62,13.43-5.62,20.61.31,34.34-1.25,39.65-1.56,7.81.63,8.74c0-4.09,1.71-16.87,5.07-34.49S144.45,355,144.45,355s6.29-1.26,9.23-2.1a45.53,45.53,0,0,0,4.47-1.68,53.63,53.63,0,0,0,1.3-6.93C159.45,342.05,143.53,345.17,143.53,345.17Z" style="fill:#F78E3D;opacity:0.5;mix-blend-mode:multiply"/></g><path d="M143.53,345.17s-5.62,13.43-5.62,20.61.31,34.34-1.25,39.65-1.56,7.81.63,8.74,7.18.63,8.43,1.56,7.49,3.13,9.05,1.88-9.36-7.81-10.61-10.31,4.68-29.34,7.8-35.59,7.49-25.29,7.49-27.47S143.53,345.17,143.53,345.17Z" style="fill:none;stroke:#263238;stroke-linecap:round;stroke-linejoin:round"/><path d="M144.16,407.3l-2.5,3.13-5.46-3.33c-1.07,4.17-.85,6.24,1.09,7.07,2.18.94,7.18.63,8.43,1.56s7.49,3.13,9.05,1.88S145.41,409.8,144.16,407.3Z" style="fill:#F78E3D;stroke:#263238;stroke-linecap:round;stroke-linejoin:round"/><path d="M111.69,346.42s-5,5.94-6.87,17.8-2.19,47.14-2.5,52.14-.62,5.93,2.5,7.49,10.3,5,12.17,5,2.5-1.25,0-5.62-9.36-6.25-9.36-10,15.61-47.15,17.48-54A48.35,48.35,0,0,0,127,347.67Z" style="fill:#fff"/><g style="clip-path:url(#freepik--clip-path-5--inject-1--inject-62)"><path d="M104.82,364.22c-1.87,11.86-2.19,47.14-2.5,52.14s-.6,5.89,2.34,7.41c.08-5.31.35-15.84,1.22-28.57,1.26-18.45,5.45-41.51,5.45-41.51a48,48,0,0,0,9.64,2.09,34.41,34.41,0,0,0,4.89.37,44.83,44.83,0,0,0,1.13-8.48l-15.3-1.25S106.69,352.35,104.82,364.22Z" style="fill:#F78E3D;opacity:0.5;mix-blend-mode:multiply"/></g><path d="M111.69,346.42s-5,5.94-6.87,17.8-2.19,47.14-2.5,52.14-.62,5.93,2.5,7.49,10.3,5,12.17,5,2.5-1.25,0-5.62-9.36-6.25-9.36-10,15.61-47.15,17.48-54A48.35,48.35,0,0,0,127,347.67Z" style="fill:none;stroke:#263238;stroke-linecap:round;stroke-linejoin:round"/><path d="M117,428.85c1.88,0,2.5-1.25,0-5.62-1.77-3.1-5.73-5-7.89-7.1l-2.72,2.73-4.07-2.27c-.31,4.78-.56,5.73,2.51,7.26S115.12,428.85,117,428.85Z" style="fill:#F78E3D;stroke:#263238;stroke-linecap:round;stroke-linejoin:round"/><path d="M129.26,159.54a7.11,7.11,0,0,0-2.69-4.76c-2.48-1.86-11.58-2.28-15.51,2.69s-2.28,17.17-1.66,18.41c0,0-5.17-3.1-5.59,1.66s1.87,7,4.35,7a3.56,3.56,0,0,0,3.31-1.86s5.38,6.62,12.83,7.45,11.58-7.45,12.62-12.42S130.3,164.92,129.26,159.54Z" style="fill:#fff"/><g style="clip-path:url(#freepik--clip-path-6--inject-1--inject-62)"><path d="M119.72,184.71c-5-3.36-8.39-10.49-9.65-15.52-.93-3.71.2-9,.85-11.54-3.75,5.08-2.13,17-1.52,18.23,0,0-5.17-3.1-5.59,1.66s1.87,7,4.35,7a3.56,3.56,0,0,0,3.31-1.86s5.38,6.62,12.83,7.45a8.86,8.86,0,0,0,6.41-1.82A20.32,20.32,0,0,1,119.72,184.71Z" style="fill:#F78E3D;opacity:0.5;mix-blend-mode:multiply"/></g><path d="M129.26,159.54a7.11,7.11,0,0,0-2.69-4.76c-2.48-1.86-11.58-2.28-15.51,2.69s-2.28,17.17-1.66,18.41c0,0-5.17-3.1-5.59,1.66s1.87,7,4.35,7a3.56,3.56,0,0,0,3.31-1.86s5.38,6.62,12.83,7.45,11.58-7.45,12.62-12.42S130.3,164.92,129.26,159.54Z" style="fill:none;stroke:#263238;stroke-linecap:round;stroke-linejoin:round"/><path d="M126.25,162.67a9.88,9.88,0,0,0,.27,4.75c.82,2,3.93,4.2,3.53,5s-1.76,1.09-1.76,1.09" style="fill:none;stroke:#263238;stroke-linecap:round;stroke-linejoin:round"/><path d="M128.15,179.61s-1.9.82-4.74-.94" style="fill:none;stroke:#263238;stroke-linecap:round;stroke-linejoin:round"/><path d="M120.62,167.43c.14.85-.08,1.59-.48,1.66s-.85-.57-1-1.42.08-1.59.48-1.65S120.48,166.58,120.62,167.43Z" style="fill:#263238"/><path d="M129.19,164.08c.27.82.17,1.58-.22,1.71s-.93-.42-1.2-1.24-.17-1.58.22-1.71S128.92,163.26,129.19,164.08Z" style="fill:#263238"/><path d="M116.23,165.79s-.41-3,1.89-3.93,3.53-.27,3.53-.27" style="fill:none;stroke:#263238;stroke-linecap:round;stroke-linejoin:round"/><path d="M126,161.45s.25-2.41,1.76-2.16" style="fill:none;stroke:#263238;stroke-linecap:round;stroke-linejoin:round"/><path d="M145.19,348.42s5.38,0,15.93-2.07,12.62-3.93,12.62-3.93-2.69-19.86-3.1-28.76S164.76,274,162,263.93c-3.25,2.28-8.26,4.79-16,6.94a41.7,41.7,0,0,1-31.14-3.42c-1,2.55-4.31,11.12-4.66,17-.42,7,1.45,13.24,1.65,20.69s-8.07,41.37-8.07,41.37a86.81,86.81,0,0,0,19.87,5.59,57,57,0,0,0,21.72-.41Z" style="fill:#263238;stroke:#263238;stroke-linecap:round;stroke-linejoin:round"/><polyline points="145.19 348.42 144.16 288.04 149.78 278.36" style="fill:none;stroke:#fff;stroke-linecap:round;stroke-linejoin:round"/><path d="M126.92,273.81a13.31,13.31,0,0,1-7.44,9.57" style="fill:none;stroke:#fff;stroke-linecap:round;stroke-linejoin:round;stroke-width:0.5px"/><path d="M117,344.61c-.43,2.89-.7,4.66-.7,4.66" style="fill:none;stroke:#fff;stroke-linecap:round;stroke-linejoin:round;stroke-width:0.5px"/><path d="M120.54,272.39a53.93,53.93,0,0,0-1.77,19.14c1.06,9.92,1.77,27.28.35,37.9-.55,4.14-1.1,8.07-1.57,11.32" style="fill:none;stroke:#fff;stroke-linecap:round;stroke-linejoin:round;stroke-width:0.5px"/><path d="M106.37,341.12s11,8.86,36.49,6" style="fill:none;stroke:#fff;stroke-linecap:round;stroke-linejoin:round;stroke-width:0.5px"/><path d="M148.17,344s11,.71,23.74-6.73" style="fill:none;stroke:#fff;stroke-linecap:round;stroke-linejoin:round;stroke-width:0.5px"/></g></svg>